<svg width="39" height="39" viewBox="0 0 39 39" fill="none" xmlns="http://www.w3.org/2000/svg">
<rect width="39" height="39" rx="19.5" fill="#CBFF8C"/>
<path d="M13 18L14.5 13.5H25.5L27 18M25.5 23C25.1022 23 24.7206 22.842 24.4393 22.5607C24.158 22.2794 24 21.8978 24 21.5C24 21.1022 24.158 20.7206 24.4393 20.4393C24.7206 20.158 25.1022 20 25.5 20C25.8978 20 26.2794 20.158 26.5607 20.4393C26.842 20.7206 27 21.1022 27 21.5C27 21.8978 26.842 22.2794 26.5607 22.5607C26.2794 22.842 25.8978 23 25.5 23ZM14.5 23C14.1022 23 13.7206 22.842 13.4393 22.5607C13.158 22.2794 13 21.8978 13 21.5C13 21.1022 13.158 20.7206 13.4393 20.4393C13.7206 20.158 14.1022 20 14.5 20C14.8978 20 15.2794 20.158 15.5607 20.4393C15.842 20.7206 16 21.1022 16 21.5C16 21.8978 15.842 22.2794 15.5607 22.5607C15.2794 22.842 14.8978 23 14.5 23ZM26.92 13C26.72 12.42 26.16 12 25.5 12H14.5C13.84 12 13.28 12.42 13.08 13L11 19V27C11 27.2652 11.1054 27.5196 11.2929 27.7071C11.4804 27.8946 11.7348 28 12 28H13C13.2652 28 13.5196 27.8946 13.7071 27.7071C13.8946 27.5196 14 27.2652 14 27V26H26V27C26 27.2652 26.1054 27.5196 26.2929 27.7071C26.4804 27.8946 26.7348 28 27 28H28C28.2652 28 28.5196 27.8946 28.7071 27.7071C28.8946 27.5196 29 27.2652 29 27V19L26.92 13Z" fill="black"/>
</svg>
