<svg width="20" height="16" viewBox="0 0 20 16" fill="none" xmlns="http://www.w3.org/2000/svg">
<path d="M18.1818 3.55556V1.77778H5.45455V3.55556H18.1818ZM18.1818 10.6667V6.22222H5.45455V10.6667H18.1818ZM18.1818 0C18.664 0 19.1265 0.187301 19.4675 0.520699C19.8084 0.854097 20 1.30628 20 1.77778V10.6667C20 11.1382 19.8084 11.5903 19.4675 11.9237C19.1265 12.2571 18.664 12.4444 18.1818 12.4444H5.45455C4.44545 12.4444 3.63636 11.6444 3.63636 10.6667V1.77778C3.63636 0.791111 4.44545 0 5.45455 0H18.1818ZM1.81818 14.2222H15.4545V16H1.81818C1.33597 16 0.873508 15.8127 0.532533 15.4793C0.191558 15.1459 0 14.6937 0 14.2222V4.44444H1.81818V14.2222Z" fill="#4B4947"/>
</svg>
