<svg width="39" height="39" viewBox="0 0 39 39" fill="none" xmlns="http://www.w3.org/2000/svg">
<rect width="39" height="39" rx="19.5" fill="#CBFF8C"/>
<path d="M20 12C19.0717 12 18.1815 12.3687 17.5251 13.0251C16.8687 13.6815 16.5 14.5717 16.5 15.5H18.5C18.5 15.1022 18.658 14.7206 18.9393 14.4393C19.2206 14.158 19.6022 14 20 14C20.3978 14 20.7794 14.158 21.0607 14.4393C21.342 14.7206 21.5 15.1022 21.5 15.5C21.5 15.8978 21.342 16.2794 21.0607 16.5607C20.7794 16.842 20.3978 17 20 17C19.45 17 19 17.45 19 18V19.75L10.4 26.2C10.2321 26.3259 10.1081 26.5015 10.0455 26.7018C9.98291 26.9022 9.98495 27.1171 10.0513 27.3162C10.1177 27.5153 10.245 27.6885 10.4153 27.8112C10.5856 27.934 10.7901 28 11 28H29C29.2099 28 29.4144 27.934 29.5847 27.8112C29.755 27.6885 29.8823 27.5153 29.9487 27.3162C30.0151 27.1171 30.0171 26.9022 29.9545 26.7018C29.8919 26.5015 29.7679 26.3259 29.6 26.2L21 19.75V18.85C21.7216 18.6349 22.3546 18.1927 22.805 17.5892C23.2554 16.9857 23.4991 16.253 23.5 15.5C23.5 14.5717 23.1313 13.6815 22.4749 13.0251C21.8185 12.3687 20.9283 12 20 12ZM20 21.5L26 26H14L20 21.5Z" fill="black"/>
</svg>
