<svg width="25" height="25" viewBox="0 0 25 25" fill="none" xmlns="http://www.w3.org/2000/svg">
<path d="M19.2598 21.0719H8.25977V7.0719H19.2598M19.2598 5.0719H8.25977C7.72933 5.0719 7.22062 5.28261 6.84555 5.65769C6.47048 6.03276 6.25977 6.54147 6.25977 7.0719V21.0719C6.25977 21.6023 6.47048 22.111 6.84555 22.4861C7.22062 22.8612 7.72933 23.0719 8.25977 23.0719H19.2598C19.7902 23.0719 20.2989 22.8612 20.674 22.4861C21.0491 22.111 21.2598 21.6023 21.2598 21.0719V7.0719C21.2598 6.54147 21.0491 6.03276 20.674 5.65769C20.2989 5.28261 19.7902 5.0719 19.2598 5.0719M16.2598 1.0719H4.25977C3.72933 1.0719 3.22062 1.28261 2.84555 1.65769C2.47048 2.03276 2.25977 2.54147 2.25977 3.0719V17.0719H4.25977V3.0719H16.2598V1.0719Z" fill="black"/>
</svg>
