<svg width="31" height="28" viewBox="0 0 31 28" fill="none" xmlns="http://www.w3.org/2000/svg">
<path fill-rule="evenodd" clip-rule="evenodd" d="M30.0161 15.3092V27.2221H3.44922V15.3103H27.6704V15.3092H30.0161Z" fill="#CBFF8C"/>
<path fill-rule="evenodd" clip-rule="evenodd" d="M27.6704 12.8439V15.3092H3.44924V15.3103H3.44851V24.7549H0.983948V12.8439H27.6704Z" fill="#CBFF8C"/>
<path fill-rule="evenodd" clip-rule="evenodd" d="M3.44849 25.2392H0.983924C0.716406 25.2392 0.5 25.0225 0.5 24.755V12.8439C0.5 12.5764 0.716406 12.3596 0.983924 12.3596H27.6704C27.9376 12.3596 28.1543 12.5764 28.1543 12.8439V15.3103C28.1543 15.5778 27.9376 15.7946 27.6704 15.7946H3.93241V24.755C3.93241 25.0225 3.71564 25.2392 3.44849 25.2392ZM1.46785 24.271H2.96457V15.3103C2.96457 15.0431 3.18134 14.8264 3.44849 14.8264H27.1865V13.3278H1.46785V24.271Z" fill="#4B4947"/>
<path fill-rule="evenodd" clip-rule="evenodd" d="M30.0161 27.7063H3.44919C3.18204 27.7063 2.96527 27.4896 2.96527 27.2221V15.3092C2.96527 15.0417 3.18204 14.8249 3.44919 14.8249H30.0161C30.2836 14.8249 30.5 15.0417 30.5 15.3092V27.2221C30.5 27.4896 30.2836 27.7063 30.0161 27.7063ZM3.93312 26.7381H29.5325V15.7931H3.93312V26.7381Z" fill="#4B4947"/>
<path fill-rule="evenodd" clip-rule="evenodd" d="M10.1477 20.2782H6.22336C5.95621 20.2782 5.73944 20.0614 5.73944 19.7939C5.73944 19.5268 5.95621 19.31 6.22336 19.31H10.1477C10.4148 19.31 10.6316 19.5268 10.6316 19.7939C10.6316 20.0614 10.4148 20.2782 10.1477 20.2782Z" fill="#4B4947"/>
<path fill-rule="evenodd" clip-rule="evenodd" d="M10.1477 23.2213H6.22336C5.95621 23.2213 5.73944 23.0045 5.73944 22.7373C5.73944 22.4698 5.95621 22.2531 6.22336 22.2531H10.1477C10.4148 22.2531 10.6316 22.4698 10.6316 22.7373C10.6316 23.0045 10.4148 23.2213 10.1477 23.2213Z" fill="#4B4947"/>
<path fill-rule="evenodd" clip-rule="evenodd" d="M27.2419 20.2782H23.3176C23.0504 20.2782 22.8337 20.0614 22.8337 19.7939C22.8337 19.5268 23.0504 19.31 23.3176 19.31H27.2419C27.5094 19.31 27.7258 19.5268 27.7258 19.7939C27.7258 20.0614 27.5094 20.2782 27.2419 20.2782Z" fill="#4B4947"/>
<path fill-rule="evenodd" clip-rule="evenodd" d="M27.2419 23.2213H23.3176C23.0504 23.2213 22.8337 23.0045 22.8337 22.7373C22.8337 22.4698 23.0504 22.2531 23.3176 22.2531H27.2419C27.5094 22.2531 27.7258 22.4698 27.7258 22.7373C27.7258 23.0045 27.5094 23.2213 27.2419 23.2213Z" fill="#4B4947"/>
<path fill-rule="evenodd" clip-rule="evenodd" d="M16.7326 23.9412C15.9373 23.9412 15.2414 23.4572 15.0398 22.7649C14.9651 22.5079 15.1127 22.2393 15.3693 22.1646C15.626 22.0899 15.8946 22.2375 15.9692 22.4945C16.0497 22.7718 16.3709 22.973 16.7326 22.973C17.1568 22.973 17.5153 22.6927 17.5153 22.3614C17.5153 22.0965 17.2137 21.8862 16.6192 21.7361C15.5788 21.4947 14.9822 20.9238 14.9822 20.1702C14.9822 19.2991 15.7673 18.5905 16.7326 18.5905C17.5211 18.5905 18.2159 19.0689 18.4218 19.7544C18.4987 20.0103 18.3533 20.2804 18.0978 20.3572C17.8415 20.4344 17.5718 20.2891 17.495 20.0332C17.4123 19.758 17.0919 19.5587 16.7326 19.5587C16.3085 19.5587 15.95 19.8385 15.95 20.1702C15.95 20.558 16.6322 20.7458 16.8414 20.794C16.8443 20.7948 16.8472 20.7955 16.8501 20.7962C17.3097 20.9115 17.6613 21.0663 17.9249 21.2693C18.2899 21.5509 18.4827 21.9283 18.4827 22.3614C18.4831 23.2325 17.6979 23.9412 16.7326 23.9412Z" fill="#4B4947"/>
<path fill-rule="evenodd" clip-rule="evenodd" d="M16.7326 24.5915C16.4655 24.5915 16.2487 24.3747 16.2487 24.1075V18.4237C16.2487 18.1566 16.4655 17.9398 16.7326 17.9398C17.0002 17.9398 17.2166 18.1566 17.2166 18.4237V24.1075C17.2166 24.3747 16.9998 24.5915 16.7326 24.5915Z" fill="#4B4947"/>
<path fill-rule="evenodd" clip-rule="evenodd" d="M15.4998 10.3895C15.2326 10.3895 15.0162 10.1727 15.0162 9.9052V0.732402C15.0162 0.464884 15.2326 0.248116 15.4998 0.248116C15.7673 0.248116 15.9837 0.464884 15.9837 0.732402V9.9052C15.9837 10.1727 15.7673 10.3895 15.4998 10.3895Z" fill="#4B4947"/>
<path fill-rule="evenodd" clip-rule="evenodd" d="M18.2943 3.96364C18.1703 3.96364 18.0463 3.91615 17.9521 3.8219L15.4998 1.36857L13.0479 3.8219C12.8591 4.01076 12.5528 4.01076 12.3636 3.8219C12.1747 3.63268 12.1747 3.32602 12.3636 3.13716L15.158 0.34164C15.3469 0.152783 15.6532 0.152783 15.8424 0.34164L18.6364 3.13716C18.8253 3.32602 18.8253 3.63268 18.6364 3.8219C18.5418 3.91615 18.4179 3.96364 18.2943 3.96364Z" fill="#4B4947"/>
</svg>
