<svg width="39" height="39" viewBox="0 0 39 39" fill="none" xmlns="http://www.w3.org/2000/svg">
<rect width="39" height="39" rx="19.5" fill="#CBFF8C"/>
<path d="M21.67 22.5975L27.67 28.5975L29.78 26.4375L23.78 20.4375L21.67 22.5975ZM25.39 17.3975C25 17.3975 24.58 17.3475 24.25 17.2075L12.86 28.5475L10.75 26.4375L18.16 19.0375L16.39 17.2575L15.67 17.9575L14.22 16.5475V19.4075L13.52 20.1075L10 16.5475L10.7 15.8475H13.51L12.11 14.4375L15.67 10.8775C16.84 9.7075 18.72 9.7075 19.89 10.8775L17.78 13.0375L19.19 14.4375L18.48 15.1475L20.27 16.9275L22.09 15.0475C21.95 14.7175 21.89 14.2975 21.89 13.9275C21.89 11.9575 23.45 10.4075 25.39 10.4075C25.98 10.4075 26.5 10.5475 26.97 10.8275L24.3 13.4975L25.8 14.9975L28.47 12.3275C28.75 12.7975 28.89 13.2975 28.89 13.9275C28.89 15.8475 27.34 17.3975 25.39 17.3975Z" fill="black"/>
</svg>
