<svg width="39" height="39" viewBox="0 0 39 39" fill="none" xmlns="http://www.w3.org/2000/svg">
<rect width="39" height="39" rx="19.5" fill="#CBFF8C"/>
<path d="M17.06 9.00004C15.17 8.99004 13.33 10.81 14.17 13.07H11C10.4696 13.07 9.96086 13.2808 9.58579 13.6558C9.21071 14.0309 9 14.5396 9 15.07V17.07C9 17.3353 9.10536 17.5896 9.29289 17.7771C9.48043 17.9647 9.73478 18.07 10 18.07H19V15.07H21V18.07H30C30.2652 18.07 30.5196 17.9647 30.7071 17.7771C30.8946 17.5896 31 17.3353 31 17.07V15.07C31 14.5396 30.7893 14.0309 30.4142 13.6558C30.0391 13.2808 29.5304 13.07 29 13.07H25.83C27 9.80004 22.6 7.49004 20.57 10.31L20 11.07L19.43 10.29C18.8 9.40004 17.93 9.01004 17.06 9.00004ZM17 11.07C17.89 11.07 18.34 12.15 17.71 12.78C17.08 13.41 16 12.96 16 12.07C16 11.8048 16.1054 11.5505 16.2929 11.3629C16.4804 11.1754 16.7348 11.07 17 11.07ZM23 11.07C23.89 11.07 24.34 12.15 23.71 12.78C23.08 13.41 22 12.96 22 12.07C22 11.8048 22.1054 11.5505 22.2929 11.3629C22.4804 11.1754 22.7348 11.07 23 11.07ZM10 19.07V27.07C10 27.6005 10.2107 28.1092 10.5858 28.4843C10.9609 28.8593 11.4696 29.07 12 29.07H28C28.5304 29.07 29.0391 28.8593 29.4142 28.4843C29.7893 28.1092 30 27.6005 30 27.07V19.07H21V27.07H19V19.07H10Z" fill="black"/>
</svg>
