<svg width="32" height="32" viewBox="0 0 32 32" fill="none" xmlns="http://www.w3.org/2000/svg">
<path d="M14.7227 23.2445V18.815L12.4883 16.5305L7.37381 19.4686V19.487C7.37381 19.5068 7.38037 19.5252 7.38037 19.5449C7.38037 19.7619 7.29111 19.9605 7.14933 20.1012C7.00886 20.242 6.80407 20.3327 6.59271 20.3327C6.38136 20.3327 6.17657 20.242 6.04267 20.1012C5.90089 19.9605 5.81162 19.7619 5.81162 19.5449C5.81162 19.3279 5.90089 19.1359 6.04267 18.9938C6.18313 18.8531 6.38136 18.7637 6.59271 18.7637C6.68198 18.7637 6.77256 18.7768 6.85527 18.8031C6.92616 18.8281 6.99573 18.8663 7.0535 18.911L9.28782 17.6247L6.8487 16.5174C6.78438 16.5752 6.70824 16.6199 6.62422 16.6581C6.53495 16.6975 6.43256 16.716 6.33016 16.716C6.11224 16.716 5.91401 16.6265 5.77355 16.4858C5.63308 16.3451 5.5425 16.1465 5.5425 15.936C5.5425 15.7177 5.63308 15.5191 5.77355 15.3784C5.91401 15.2377 6.11224 15.1483 6.33016 15.1483C6.54808 15.1483 6.73974 15.2377 6.88152 15.3784C7.02199 15.5191 7.11126 15.7177 7.11126 15.9295L9.98622 17.2276L12.021 16.057L9.52412 13.4977L6.9511 13.069C6.88152 13.1702 6.78438 13.2544 6.68198 13.3109C6.56777 13.3754 6.43912 13.4135 6.29865 13.4135C6.08074 13.4135 5.88907 13.3241 5.74729 13.1834C5.60683 13.0427 5.51756 12.8441 5.51756 12.6271C5.51756 12.4087 5.60683 12.2101 5.74729 12.076C5.88907 11.9353 6.0873 11.8458 6.29865 11.8458C6.49032 11.8458 6.65704 11.9103 6.79751 12.0181C6.92616 12.1207 7.01543 12.2614 7.06662 12.4285L9.74204 12.8769L9.75517 12.8822L9.9022 12.9598L9.91533 12.9729L14.7227 17.8996V13.4977L12.936 11.1291L7.95012 10.2847C7.88579 10.3873 7.78996 10.4702 7.681 10.528C7.56547 10.5912 7.43814 10.6306 7.29767 10.6306C7.07975 10.6306 6.88152 10.5399 6.73974 10.3991C6.59928 10.2584 6.51657 10.0598 6.51657 9.84282C6.51657 9.62581 6.60584 9.42722 6.73974 9.29307C6.88152 9.15103 7.08631 9.0616 7.29767 9.0616C7.48933 9.0616 7.65606 9.12604 7.78996 9.2352C7.91861 9.33779 8.01444 9.47851 8.05907 9.64422L12.3728 10.3741L10.1648 7.44261C10.1451 7.44919 10.1201 7.45576 10.1004 7.45576C10.0624 7.46234 10.0309 7.46891 9.99803 7.46891C9.78011 7.46891 9.58188 7.37948 9.44142 7.23876C9.30095 7.09672 9.21168 6.89944 9.21168 6.68112C9.21168 6.46412 9.30095 6.26552 9.44142 6.13137C9.58188 5.99065 9.78011 5.90122 9.99803 5.90122C10.216 5.90122 10.4076 5.99065 10.5494 6.13137C10.6899 6.2721 10.7791 6.47069 10.7791 6.68112C10.7791 6.75872 10.766 6.82184 10.7476 6.89944C10.7345 6.95599 10.7096 7.01386 10.6833 7.06515L14.7227 12.4153V8.23698L12.5146 5.29229C12.4883 5.29886 12.47 5.30544 12.4503 5.30544C12.4122 5.31202 12.3794 5.31859 12.3413 5.31859C12.1234 5.31859 11.9252 5.22916 11.7913 5.08844C11.6495 4.9464 11.5602 4.74912 11.5602 4.5308C11.5602 4.31379 11.6495 4.1152 11.7913 3.98105C11.9317 3.84033 12.13 3.7509 12.3413 3.7509C12.5592 3.7509 12.7575 3.84033 12.8979 3.98105C13.0397 4.12178 13.129 4.32037 13.129 4.5308C13.129 4.60182 13.1159 4.67152 13.0962 4.74912C13.0843 4.80567 13.0581 4.86354 13.0331 4.91483L14.7292 7.16774V3.33398C14.5888 3.27086 14.4733 3.18668 14.3958 3.06569C14.3131 2.94995 14.2685 2.79608 14.2685 2.61721C14.2685 2.41862 14.3577 2.22134 14.5113 2.06746C14.6518 1.92674 14.8448 1.83073 15.0561 1.83073C15.2662 1.83073 15.4591 1.92016 15.5996 2.06746C15.7532 2.21477 15.8425 2.41336 15.8425 2.61721C15.8425 2.79608 15.7978 2.94338 15.7151 3.06569C15.6311 3.18668 15.5169 3.27612 15.3817 3.33398V23.2116C15.471 23.2051 15.5747 23.2051 15.6705 23.1998C15.7913 23.1998 15.9068 23.1998 16.0158 23.1998C16.1181 23.1998 16.2337 23.1998 16.361 23.1998C16.4516 23.2051 16.554 23.2051 16.6498 23.2116V3.33398C16.508 3.27086 16.3938 3.18668 16.3098 3.06569C16.2337 2.94995 16.1825 2.79608 16.1825 2.61721C16.1825 2.41862 16.2783 2.22134 16.4253 2.06746C16.5658 1.92674 16.7588 1.83073 16.9701 1.83073C17.1802 1.83073 17.3732 1.92016 17.5136 2.06746C17.6607 2.21477 17.7565 2.41336 17.7565 2.61721C17.7565 2.79608 17.7053 2.94338 17.6291 3.06569C17.5451 3.18668 17.4309 3.27612 17.2891 3.33398V7.15459L18.9865 4.90168C18.9603 4.85039 18.9353 4.79384 18.9222 4.73597C18.9091 4.66495 18.896 4.59524 18.896 4.51765C18.896 4.30064 18.9865 4.10205 19.127 3.9679C19.2675 3.82718 19.4657 3.73774 19.6771 3.73774C19.895 3.73774 20.0932 3.82718 20.2337 3.9679C20.3755 4.10863 20.4647 4.30722 20.4647 4.51765C20.4647 4.73597 20.3755 4.93456 20.2337 5.07528C20.0932 5.21601 19.8884 5.30544 19.6771 5.30544C19.639 5.30544 19.6127 5.29886 19.5747 5.29229C19.5497 5.29229 19.53 5.28571 19.5103 5.28045L17.2957 8.22383V12.4153L21.3351 7.04674C21.3036 6.99545 21.2839 6.93758 21.2708 6.87971C21.2524 6.80869 21.2393 6.73899 21.2393 6.66271C21.2393 6.44439 21.3285 6.2458 21.4703 6.11165C21.6108 5.97092 21.809 5.88149 22.0269 5.88149C22.2448 5.88149 22.4365 5.97092 22.577 6.11165C22.7174 6.25237 22.808 6.45096 22.808 6.66271C22.808 6.87971 22.7174 7.0783 22.577 7.21903C22.4365 7.35975 22.2383 7.44919 22.0269 7.44919C21.9888 7.44919 21.956 7.44261 21.918 7.43603C21.8983 7.43603 21.8733 7.43077 21.8536 7.4242L19.6456 10.3544L23.9593 9.62581C23.9987 9.45878 24.1011 9.31806 24.2284 9.21547C24.3636 9.10105 24.5356 9.04319 24.722 9.04319C24.9386 9.04319 25.1382 9.13262 25.2786 9.27334C25.4191 9.41407 25.5084 9.61266 25.5084 9.82309C25.5084 10.0414 25.4191 10.24 25.2786 10.3807C25.1382 10.5214 24.9386 10.6109 24.722 10.6109C24.5802 10.6109 24.4529 10.5727 24.3374 10.5083C24.2284 10.4439 24.1392 10.3676 24.0683 10.265L19.0824 11.1093L17.2957 13.478V17.8812L22.1031 12.9532L22.1162 12.9401L22.2632 12.8638L22.2763 12.8572L24.9583 12.4087C24.9964 12.243 25.0988 12.1023 25.2274 11.9997C25.3613 11.884 25.5346 11.8261 25.7197 11.8261C25.9376 11.8261 26.1359 11.9169 26.2777 12.0576C26.4181 12.1983 26.5074 12.3969 26.5074 12.6073C26.5074 12.8256 26.4181 13.0229 26.2777 13.165C26.1359 13.3057 25.9311 13.3951 25.7197 13.3951C25.5793 13.3951 25.4519 13.3557 25.3364 13.2925C25.2274 13.2281 25.1382 13.1518 25.0673 13.0492L22.4877 13.478L19.9974 16.0373L22.0335 17.2091L24.9071 15.9097C24.9071 15.6927 24.9964 15.5007 25.1382 15.36C25.2786 15.2193 25.4769 15.1285 25.6948 15.1285C25.9127 15.1285 26.1044 15.2193 26.2448 15.36C26.3866 15.5007 26.4759 15.698 26.4759 15.9163C26.4759 16.1333 26.3866 16.3253 26.2448 16.4661C26.1044 16.6068 25.9061 16.6975 25.6948 16.6975C25.5858 16.6975 25.49 16.6778 25.4007 16.6397C25.3167 16.6015 25.2406 16.5568 25.1762 16.4989L22.7306 17.6063L24.9649 18.8926C25.0292 18.8479 25.0935 18.8084 25.1697 18.7834C25.2524 18.7571 25.3364 18.7453 25.4257 18.7453C25.6436 18.7453 25.8418 18.8347 25.9823 18.9754C26.1241 19.1162 26.2133 19.3148 26.2133 19.5252C26.2133 19.7435 26.1241 19.9421 25.9823 20.0828C25.8418 20.2235 25.6436 20.313 25.4257 20.313C25.2077 20.313 25.0095 20.2235 24.8756 20.0828C24.7338 19.9421 24.6446 19.7435 24.6446 19.5252C24.6446 19.5133 24.6446 19.487 24.6446 19.4686V19.4489L19.5366 16.5108L17.3023 18.7966V23.2248C18.0899 23.2761 18.871 23.3787 19.6259 23.5194C20.4135 23.6733 21.1881 23.8705 21.9376 24.1138C22.8592 24.415 23.7493 24.7859 24.6065 25.2147C25.4572 25.6434 26.2711 26.1366 27.0391 26.6811C28.403 25.2725 29.5031 23.6088 30.2593 21.7662C30.9892 19.9802 31.3922 18.0285 31.3922 15.9742C31.3922 13.8936 30.976 11.9103 30.2265 10.1059C29.4454 8.2304 28.3124 6.53382 26.8986 5.12C25.4834 3.70487 23.7939 2.55934 21.9114 1.78602C20.1063 1.03636 18.1214 0.627341 16.0407 0.627341C13.9613 0.627341 11.9764 1.04294 10.1648 1.78602C8.28881 2.56592 6.59928 3.70487 5.17755 5.12C3.7637 6.53382 2.62422 8.22383 1.84969 10.1059C1.09353 11.9103 0.690515 13.8936 0.690515 15.9742C0.690515 18.0285 1.08828 19.9802 1.82343 21.7662C2.57302 23.6088 3.67443 25.2725 5.03709 26.6811C5.81162 26.13 6.61897 25.6434 7.47621 25.2147C8.32819 24.7859 9.21694 24.415 10.1398 24.1138C10.8947 23.8705 11.6561 23.6733 12.4503 23.5194C13.1605 23.3971 13.935 23.2945 14.7227 23.2445ZM27.5379 27.0835L27.404 27.2242L27.3147 27.3137C27.0522 27.5767 26.7831 27.8332 26.5008 28.0699C26.2448 28.2935 25.9757 28.5171 25.7013 28.7222H25.7079L25.5084 28.863C25.1762 29.1063 24.831 29.343 24.4844 29.5666C24.1641 29.7652 23.832 29.9572 23.4985 30.1361L23.5117 30.1492L23.0824 30.3544C22.2501 30.7634 21.3863 31.1027 20.4844 31.3658C19.6009 31.6209 18.6846 31.8063 17.7447 31.9089C16.6367 32.0247 15.5418 32.0312 14.4404 31.9221C13.4677 31.8326 12.5212 31.6472 11.6114 31.3907C10.6767 31.1224 9.78011 30.7766 8.92288 30.3544L8.4936 30.1492L8.50673 30.1361C8.1746 29.9572 7.84116 29.7652 7.52084 29.5666C7.16902 29.3496 6.82376 29.1129 6.49032 28.863L6.29865 28.7222C6.02954 28.5105 5.76042 28.2935 5.49787 28.0699C5.21693 27.8266 4.94782 27.5701 4.69183 27.3137C4.61438 27.2374 4.53823 27.1664 4.46735 27.0901C3.06531 25.6316 1.93896 23.91 1.16442 22.003C0.409583 20.1459 0 18.1245 0 15.9992C0 13.8357 0.427962 11.7696 1.20906 9.88096C2.02166 7.92923 3.21234 6.16294 4.69183 4.69125C6.16344 3.21956 7.92386 2.02932 9.88382 1.21654C11.765 0.428749 13.8326 0 16.0026 0C18.1661 0 20.2337 0.428749 22.1162 1.20997C24.0748 2.02275 25.8352 3.21299 27.3147 4.68468C28.7863 6.15636 29.977 7.92265 30.7896 9.87438C31.5707 11.763 32 13.8304 32 15.9926C32 18.1179 31.5839 20.1407 30.8356 21.9964C30.0663 23.9034 28.9399 25.6316 27.5379 27.0835ZM5.46636 27.1611C5.68428 27.365 5.90745 27.5636 6.1385 27.7622C6.38136 27.9608 6.61897 28.1593 6.8684 28.3382C7.52084 27.9095 8.19954 27.5254 8.90975 27.1927C9.62127 26.8534 10.3564 26.5653 11.1191 26.3352C11.9002 26.0919 12.7063 25.913 13.532 25.7841C14.338 25.6697 15.1638 25.6053 16.0026 25.6053C16.8349 25.6053 17.6672 25.6697 18.468 25.7841C19.2937 25.9064 20.0932 26.0919 20.8809 26.3352C21.6423 26.5653 22.3853 26.8534 23.0955 27.1927C23.8005 27.5254 24.4844 27.9095 25.1316 28.3382C25.381 28.1528 25.6305 27.9608 25.8615 27.7622C26.0912 27.5701 26.3157 27.365 26.5402 27.1611C25.8103 26.6482 25.0423 26.1945 24.2416 25.7907C23.4289 25.3883 22.5835 25.0358 21.7066 24.7543C20.7982 24.4597 19.8569 24.2296 18.896 24.0757C17.9547 23.9284 16.9885 23.8521 15.9961 23.8521C15.0049 23.8521 14.044 23.9284 13.0962 24.0757C12.1365 24.2296 11.1953 24.4532 10.2868 24.7543C9.40991 25.0424 8.56449 25.3883 7.75845 25.7907C6.95766 26.1945 6.18969 26.6548 5.46636 27.1611ZM7.43814 28.742C7.70725 28.9274 7.98819 29.0997 8.27043 29.2667C8.56449 29.439 8.87168 29.6047 9.17886 29.7586C9.67772 29.4837 10.1963 29.2404 10.7345 29.03C11.2727 28.8117 11.8228 28.6328 12.3925 28.4855C12.9754 28.3316 13.5701 28.2172 14.1779 28.1396C14.7804 28.0633 15.3883 28.0252 16.0026 28.0252C16.617 28.0252 17.2196 28.0633 17.8208 28.1396C18.4286 28.2172 19.0246 28.3316 19.6075 28.4855C20.1772 28.6328 20.7273 28.8117 21.2655 29.03C21.8024 29.247 22.321 29.4837 22.8198 29.7586C23.1283 29.6047 23.4355 29.439 23.7296 29.2667C24.0171 29.0997 24.2927 28.9208 24.5619 28.742C23.9724 28.3698 23.3581 28.037 22.7174 27.7372C22.065 27.4294 21.3863 27.173 20.6892 26.956C19.9396 26.7258 19.1716 26.5522 18.3774 26.4312C17.6029 26.3155 16.81 26.2576 16.0026 26.2576C15.1966 26.2576 14.3958 26.3155 13.6213 26.4312C12.8284 26.5456 12.0538 26.7258 11.3108 26.956C10.6124 27.173 9.93502 27.4294 9.28126 27.7372C8.64194 28.0305 8.02626 28.3632 7.43814 28.742ZM9.92189 30.0979C10.7607 30.4622 11.6429 30.7502 12.5461 30.9554C13.4742 31.1672 14.4221 31.3013 15.4079 31.3329C15.4394 31.3329 15.471 31.3329 15.5038 31.3395C15.5353 31.3395 15.5681 31.3395 15.6062 31.3395C15.6705 31.346 15.7283 31.346 15.7978 31.346C15.8937 31.346 15.9961 31.346 16.0985 31.346H16.298L16.4897 31.3395C16.5277 31.3329 16.554 31.3329 16.5921 31.3329C17.5714 31.2947 18.5245 31.1672 19.4473 30.9554C20.3558 30.745 21.2327 30.457 22.0715 30.0979C21.6685 29.8993 21.2589 29.7139 20.8362 29.5482C20.382 29.3811 19.9147 29.2273 19.4408 29.0997C18.8894 28.959 18.3197 28.8432 17.7447 28.7735C17.1749 28.7025 16.5921 28.6578 16.0026 28.6578C15.4079 28.6578 14.8316 28.6959 14.2619 28.7735C13.679 28.8432 13.1093 28.959 12.5592 29.0997C12.0853 29.2207 11.618 29.3746 11.1638 29.5482C10.7411 29.7139 10.3249 29.8993 9.92189 30.0979Z" fill="#1B1A18"/>
</svg>
