<svg width="109" height="108" viewBox="0 0 109 108" fill="none" xmlns="http://www.w3.org/2000/svg">
<path d="M50.5032 78.3025V63.381L42.9765 55.6854L25.7475 65.5829V65.6449C25.7475 65.7114 25.7696 65.7734 25.7696 65.8398C25.7696 66.5709 25.4689 67.2398 24.9913 67.7139C24.5181 68.1879 23.8282 68.4936 23.1162 68.4936C22.4042 68.4936 21.7144 68.1879 21.2633 67.7139C20.7857 67.2398 20.485 66.5709 20.485 65.8398C20.485 65.1088 20.7857 64.462 21.2633 63.9835C21.7365 63.5095 22.4042 63.2082 23.1162 63.2082C23.4169 63.2082 23.7221 63.2525 24.0007 63.3411C24.2395 63.4253 24.4739 63.5538 24.6684 63.7044L32.1951 59.3715L23.9786 55.6411C23.7619 55.836 23.5054 55.9867 23.2224 56.1152C22.9216 56.2481 22.5767 56.3101 22.2318 56.3101C21.4977 56.3101 20.8299 56.0088 20.3567 55.5348C19.8836 55.0607 19.5784 54.3917 19.5784 53.6829C19.5784 52.9474 19.8836 52.2785 20.3567 51.8044C20.8299 51.3304 21.4977 51.0291 22.2318 51.0291C22.9659 51.0291 23.6115 51.3304 24.0891 51.8044C24.5623 52.2785 24.863 52.9474 24.863 53.6607L34.5477 58.0335L41.4022 54.0905L32.9911 45.469L24.3235 44.0247C24.0891 44.3658 23.7619 44.6493 23.4169 44.8399C23.0322 45.0569 22.5988 45.1854 22.1256 45.1854C21.3915 45.1854 20.7459 44.8842 20.2683 44.4101C19.7951 43.9361 19.4944 43.2671 19.4944 42.5361C19.4944 41.8006 19.7951 41.1316 20.2683 40.6797C20.7459 40.2057 21.4137 39.9044 22.1256 39.9044C22.7713 39.9044 23.3329 40.1215 23.8061 40.4848C24.2395 40.8304 24.5402 41.3044 24.7127 41.8671L33.7252 43.3778L33.7694 43.3955L34.2647 43.6569L34.3089 43.7012L50.5032 60.2974V45.469L44.4845 37.4899L27.6888 34.6455C27.4721 34.9911 27.1493 35.2702 26.7823 35.4652C26.3931 35.6778 25.9641 35.8107 25.491 35.8107C24.7569 35.8107 24.0891 35.505 23.6115 35.031C23.1383 34.5569 22.8597 33.888 22.8597 33.1569C22.8597 32.4259 23.1604 31.7569 23.6115 31.305C24.0891 30.8266 24.779 30.5253 25.491 30.5253C26.1366 30.5253 26.6982 30.7424 27.1493 31.1101C27.5827 31.4557 27.9055 31.9297 28.0559 32.488L42.5874 34.9468L35.1491 25.0715C35.0828 25.0937 34.9988 25.1158 34.9325 25.1158C34.8042 25.138 34.6981 25.1601 34.5875 25.1601C33.8534 25.1601 33.1857 24.8588 32.7125 24.3848C32.2393 23.9063 31.9386 23.2418 31.9386 22.5063C31.9386 21.7753 32.2393 21.1063 32.7125 20.6544C33.1857 20.1804 33.8534 19.8791 34.5875 19.8791C35.3216 19.8791 35.9673 20.1804 36.4449 20.6544C36.918 21.1285 37.2188 21.7975 37.2188 22.5063C37.2188 22.7677 37.1745 22.9804 37.1126 23.2418C37.0684 23.4323 36.9844 23.6272 36.8959 23.8L50.5032 41.8228V27.7475L43.065 17.8278C42.9765 17.85 42.9146 17.8721 42.8483 17.8721C42.72 17.8943 42.6095 17.9164 42.4812 17.9164C41.7471 17.9164 41.0794 17.6152 40.6283 17.1411C40.1507 16.6627 39.85 15.9981 39.85 15.2627C39.85 14.5316 40.1507 13.8627 40.6283 13.4108C41.1015 12.9367 41.7692 12.6354 42.4812 12.6354C43.2153 12.6354 43.8831 12.9367 44.3563 13.4108C44.8339 13.8848 45.1346 14.5538 45.1346 15.2627C45.1346 15.5019 45.0904 15.7367 45.024 15.9981C44.9842 16.1886 44.8958 16.3835 44.8117 16.5563L50.5253 24.1456V11.231C50.0521 11.0183 49.663 10.7348 49.402 10.3272C49.1234 9.93734 48.9731 9.41898 48.9731 8.81645C48.9731 8.14746 49.2738 7.48291 49.7912 6.96455C50.2644 6.4905 50.9144 6.16709 51.6264 6.16709C52.334 6.16709 52.9841 6.46835 53.4572 6.96455C53.9746 7.46076 54.2754 8.12974 54.2754 8.81645C54.2754 9.41898 54.125 9.91518 53.8464 10.3272C53.5634 10.7348 53.1786 11.0361 52.7231 11.231V78.1917C53.0239 78.1696 53.3732 78.1696 53.696 78.1519C54.1029 78.1519 54.492 78.1519 54.8591 78.1519C55.204 78.1519 55.5932 78.1519 56.0221 78.1519C56.3273 78.1696 56.6722 78.1696 56.995 78.1917V11.231C56.5174 11.0183 56.1327 10.7348 55.8497 10.3272C55.5932 9.93734 55.4207 9.41898 55.4207 8.81645C55.4207 8.14746 55.7435 7.48291 56.2388 6.96455C56.712 6.4905 57.3621 6.16709 58.0741 6.16709C58.7816 6.16709 59.4317 6.46835 59.9049 6.96455C60.4002 7.46076 60.723 8.12974 60.723 8.81645C60.723 9.41898 60.5505 9.91518 60.294 10.3272C60.011 10.7348 59.6263 11.0361 59.1487 11.231V24.1013L64.8666 16.512C64.7782 16.3392 64.6942 16.1487 64.6499 15.9538C64.6057 15.7145 64.5615 15.4797 64.5615 15.2183C64.5615 14.4873 64.8666 13.8183 65.3398 13.3664C65.813 12.8924 66.4807 12.5911 67.1927 12.5911C67.9268 12.5911 68.5946 12.8924 69.0678 13.3664C69.5454 13.8405 69.8461 14.5095 69.8461 15.2183C69.8461 15.9538 69.5454 16.6228 69.0678 17.0968C68.5946 17.5709 67.9047 17.8721 67.1927 17.8721C67.0645 17.8721 66.976 17.85 66.8478 17.8278C66.7638 17.8278 66.6974 17.8057 66.6311 17.788L59.1708 27.7031V41.8228L72.778 23.738C72.6719 23.5652 72.6056 23.3702 72.5613 23.1753C72.4994 22.9361 72.4552 22.7013 72.4552 22.4443C72.4552 21.7088 72.7559 21.0399 73.2335 20.588C73.7067 20.1139 74.3745 19.8126 75.1085 19.8126C75.8426 19.8126 76.4883 20.1139 76.9615 20.588C77.4346 21.062 77.7398 21.731 77.7398 22.4443C77.7398 23.1753 77.4346 23.8443 76.9615 24.3183C76.4883 24.7924 75.8205 25.0937 75.1085 25.0937C74.9803 25.0937 74.8697 25.0715 74.7415 25.0494C74.6752 25.0494 74.5911 25.0316 74.5248 25.0095L67.0866 34.8804L81.6181 32.4259C81.7507 31.8633 82.0957 31.3892 82.5246 31.0437C82.9801 30.6582 83.5594 30.4633 84.1874 30.4633C84.9171 30.4633 85.5893 30.7645 86.0624 31.2386C86.5356 31.7126 86.8363 32.3816 86.8363 33.0905C86.8363 33.8259 86.5356 34.4949 86.0624 34.969C85.5893 35.443 84.9171 35.7443 84.1874 35.7443C83.7098 35.7443 83.2808 35.6158 82.8917 35.3987C82.5246 35.1816 82.2239 34.9247 81.9851 34.5791L65.1894 37.4234L59.1708 45.4025V60.2354L75.365 43.6348L75.4093 43.5905L75.9045 43.3335L75.9488 43.3114L84.9834 41.8006C85.1117 41.2424 85.4566 40.7683 85.89 40.4228C86.341 40.0329 86.9248 39.838 87.5483 39.838C88.2824 39.838 88.9502 40.1437 89.4278 40.6177C89.9009 41.0918 90.2017 41.7607 90.2017 42.4696C90.2017 43.205 89.9009 43.8696 89.4278 44.3481C88.9502 44.8221 88.2603 45.1234 87.5483 45.1234C87.0751 45.1234 86.6462 44.9905 86.257 44.7778C85.89 44.5607 85.5893 44.3038 85.3505 43.9582L76.6608 45.4025L68.2718 54.024L75.1307 57.9715L84.8109 53.5943C84.8109 52.8633 85.1117 52.2164 85.5893 51.7424C86.0624 51.2683 86.7302 50.9626 87.4643 50.9626C88.1984 50.9626 88.844 51.2683 89.3172 51.7424C89.7948 52.2164 90.0955 52.881 90.0955 53.6164C90.0955 54.3474 89.7948 54.9943 89.3172 55.4683C88.844 55.9424 88.1763 56.2481 87.4643 56.2481C87.0972 56.2481 86.7744 56.1816 86.4737 56.0531C86.1907 55.9247 85.9342 55.774 85.7175 55.5791L77.4789 59.3095L85.0055 63.6424C85.2222 63.4917 85.4389 63.3588 85.6954 63.2747C85.974 63.186 86.257 63.1462 86.5577 63.1462C87.2918 63.1462 87.9596 63.4474 88.4328 63.9215C88.9104 64.3955 89.2111 65.0645 89.2111 65.7734C89.2111 66.5088 88.9104 67.1778 88.4328 67.6519C87.9596 68.1259 87.2918 68.4272 86.5577 68.4272C85.8236 68.4272 85.1559 68.1259 84.7048 67.6519C84.2272 67.1778 83.9265 66.5088 83.9265 65.7734C83.9265 65.7335 83.9265 65.6449 83.9265 65.5829V65.5164L66.7195 55.619L59.1929 63.319V78.236C61.8462 78.4088 64.4775 78.7544 67.0203 79.2284C69.6736 79.7468 72.2827 80.4113 74.8078 81.231C77.9122 82.2455 80.9105 83.4949 83.7982 84.9392C86.6639 86.3835 89.4057 88.0449 91.9927 89.8791C96.5874 85.1341 100.293 79.5297 102.84 73.3227C105.299 67.3063 106.657 60.7316 106.657 53.8114C106.657 46.8025 105.255 40.1215 102.73 34.043C100.099 27.7253 96.2822 22.0101 91.5195 17.2475C86.7523 12.4804 81.0609 8.62151 74.7194 6.01645C68.6388 3.49114 61.9524 2.11329 54.9431 2.11329C47.9383 2.11329 41.2518 3.51329 35.1491 6.01645C28.8298 8.64367 23.1383 12.4804 18.349 17.2475C13.5863 22.0101 9.74778 27.7031 7.13866 34.043C4.59144 40.1215 3.23381 46.8025 3.23381 53.8114C3.23381 60.7316 4.57375 67.3063 7.05021 73.3227C9.57531 79.5297 13.2856 85.1341 17.8759 89.8791C20.485 88.0227 23.2047 86.3835 26.0924 84.9392C28.9624 83.4949 31.9563 82.2455 35.0651 81.231C37.6079 80.4113 40.1728 79.7468 42.8483 79.2284C45.2407 78.8164 47.8498 78.4708 50.5032 78.3025ZM93.6731 91.2348L93.2221 91.7088L92.9213 92.0101C92.0369 92.8962 91.1303 93.7601 90.1796 94.5575C89.3172 95.3107 88.4107 96.0639 87.4864 96.755H87.5085L86.8363 97.2291C85.7175 98.0487 84.5545 98.8461 83.387 99.5993C82.308 100.268 81.1891 100.915 80.0659 101.518L80.1101 101.562L78.664 102.253C75.8603 103.631 72.9505 104.774 69.9124 105.66C66.9362 106.52 63.8495 107.144 60.6832 107.49C56.9508 107.88 53.2627 107.902 49.5524 107.534C46.2755 107.233 43.0871 106.608 40.0225 105.744C36.8738 104.84 33.8534 103.675 30.9657 102.253L29.5196 101.562L29.5639 101.518C28.445 100.915 27.3218 100.268 26.2427 99.5993C25.0576 98.8683 23.8945 98.0708 22.7713 97.2291L22.1256 96.755C21.2191 96.0417 20.3125 95.3107 19.4281 94.5575C18.4817 93.7379 17.5752 92.874 16.7128 92.0101C16.4519 91.7531 16.1954 91.5139 15.9566 91.2569C11.2337 86.3436 7.43937 80.5443 4.83025 74.1202C2.28746 67.8645 0.907715 61.055 0.907715 53.8955C0.907715 46.6076 2.34937 39.6474 4.9806 33.2854C7.71797 26.7107 11.7289 20.7607 16.7128 15.8032C21.6701 10.8456 27.6004 6.83607 34.2028 4.0981C40.5399 1.4443 47.5049 0 54.8149 0C62.1027 0 69.0678 1.4443 75.4093 4.07595C82.0072 6.81392 87.9375 10.8234 92.9213 15.781C97.8787 20.7386 101.89 26.6886 104.627 33.2633C107.258 39.6253 108.704 46.5898 108.704 53.8734C108.704 61.0329 107.302 67.8468 104.782 74.0981C102.19 80.5221 98.3961 86.3436 93.6731 91.2348ZM19.3219 91.4962C20.056 92.1829 20.8078 92.8519 21.5861 93.5208C22.4042 94.1898 23.2047 94.8588 24.0449 95.4613C26.2427 94.017 28.529 92.7234 30.9215 91.6025C33.3183 90.4594 35.7948 89.4892 38.3641 88.7139C40.9954 87.8943 43.7106 87.2917 46.4922 86.8576C49.2075 86.4721 51.9891 86.255 54.8149 86.255C57.6186 86.255 60.4223 86.4721 63.1198 86.8576C65.9014 87.2696 68.5946 87.8943 71.2479 88.7139C73.8128 89.4892 76.3158 90.4594 78.7082 91.6025C81.083 92.7234 83.387 94.017 85.5671 95.4613C86.4074 94.8367 87.2476 94.1898 88.0259 93.5208C88.7998 92.874 89.556 92.1829 90.3122 91.4962C87.8534 89.7683 85.2664 88.2398 82.5689 86.8797C79.8315 85.524 76.9836 84.3367 74.0295 83.3886C70.9693 82.3962 67.7986 81.6208 64.5615 81.1025C61.3907 80.6063 58.136 80.3493 54.7928 80.3493C51.454 80.3493 48.2169 80.6063 45.024 81.1025C41.7914 81.6208 38.6206 82.374 35.5604 83.3886C32.6064 84.3588 29.7584 85.524 27.0432 86.8797C24.3456 88.2398 21.7586 89.7905 19.3219 91.4962ZM25.9641 96.8215C26.8707 97.4462 27.8171 98.0265 28.7679 98.5892C29.7584 99.1696 30.7932 99.7278 31.828 100.246C33.5085 99.3202 35.2553 98.5006 37.0684 97.7917C38.8815 97.0563 40.7344 96.4537 42.6537 95.9575C44.6172 95.4392 46.6204 95.0537 48.6679 94.7924C50.6978 94.5354 52.7453 94.4069 54.8149 94.4069C56.8845 94.4069 58.9143 94.5354 60.9397 94.7924C62.9872 95.0537 64.9949 95.4392 66.9583 95.9575C68.8776 96.4537 70.7305 97.0563 72.5436 97.7917C74.3523 98.5227 76.0991 99.3202 77.7796 100.246C78.8188 99.7278 79.8536 99.1696 80.8442 98.5892C81.8127 98.0265 82.7413 97.424 83.6479 96.8215C81.6623 95.5677 79.5927 94.4468 77.4346 93.4367C75.2368 92.3999 72.9505 91.536 70.6023 90.805C68.0772 90.0297 65.4902 89.4449 62.8147 89.0373C60.2056 88.6474 57.5345 88.4525 54.8149 88.4525C52.0996 88.4525 49.402 88.6474 46.7929 89.0373C44.1219 89.4227 41.5128 90.0297 39.0098 90.805C36.6571 91.536 34.3753 92.3999 32.173 93.4367C30.0193 94.4246 27.9453 95.5455 25.9641 96.8215ZM34.331 101.389C37.1568 102.616 40.1286 103.587 43.1711 104.278C46.2976 104.991 49.4905 105.443 52.8116 105.549C52.9177 105.549 53.0239 105.549 53.1344 105.571C53.2405 105.571 53.3511 105.571 53.4793 105.571C53.696 105.594 53.8906 105.594 54.125 105.594C54.4478 105.594 54.7928 105.594 55.1377 105.594H55.8099L56.4555 105.571C56.5838 105.549 56.6722 105.549 56.8005 105.549C60.0994 105.421 63.31 104.991 66.4188 104.278C69.479 103.569 72.4331 102.599 75.2589 101.389C73.9013 100.72 72.5215 100.096 71.0976 99.5373C69.5675 98.9746 67.9931 98.4563 66.3967 98.0265C64.5394 97.5525 62.6201 97.1626 60.6832 96.9278C58.7639 96.6886 56.8005 96.5379 54.8149 96.5379C52.8116 96.5379 50.8702 96.6664 48.951 96.9278C46.9875 97.1626 45.0682 97.5525 43.2153 98.0265C41.6189 98.4341 40.0446 98.9525 38.5145 99.5373C37.0905 100.096 35.6887 100.72 34.331 101.389Z" fill="#1B1A18"/>
</svg>
