<svg width="25" height="25" viewBox="0 0 25 25" fill="none" xmlns="http://www.w3.org/2000/svg">
<path d="M11.5021 18.1598V14.6992L9.75652 12.9145L5.76079 15.2099V15.2243C5.76079 15.2397 5.76592 15.254 5.76592 15.2695C5.76592 15.439 5.69618 15.5941 5.58541 15.7041C5.47567 15.814 5.31568 15.8849 5.15056 15.8849C4.98544 15.8849 4.82544 15.814 4.72083 15.7041C4.61007 15.5941 4.54033 15.439 4.54033 15.2695C4.54033 15.0999 4.61007 14.9499 4.72083 14.8389C4.83057 14.729 4.98544 14.6591 5.15056 14.6591C5.2203 14.6591 5.29107 14.6694 5.35568 14.69C5.41106 14.7095 5.46542 14.7393 5.51054 14.7742L7.25611 13.7693L5.35055 12.9042C5.3003 12.9494 5.24081 12.9843 5.17517 13.0141C5.10543 13.045 5.02543 13.0593 4.94544 13.0593C4.77519 13.0593 4.62032 12.9895 4.51058 12.8795C4.40085 12.7696 4.33008 12.6144 4.33008 12.45C4.33008 12.2795 4.40085 12.1243 4.51058 12.0144C4.62032 11.9044 4.77519 11.8346 4.94544 11.8346C5.11569 11.8346 5.26543 11.9044 5.37619 12.0144C5.48593 12.1243 5.55567 12.2795 5.55567 12.4449L7.80173 13.459L9.39141 12.5446L7.44072 10.5451L5.43055 10.2101C5.37619 10.2892 5.3003 10.355 5.2203 10.3992C5.13107 10.4495 5.03056 10.4793 4.92082 10.4793C4.75057 10.4793 4.60084 10.4095 4.49007 10.2995C4.38033 10.1896 4.31059 10.0344 4.31059 9.86489C4.31059 9.69432 4.38033 9.53917 4.49007 9.43437C4.60084 9.32443 4.7557 9.25456 4.92082 9.25456C5.07056 9.25456 5.20081 9.30491 5.31055 9.38916C5.41106 9.46931 5.4808 9.57925 5.5208 9.70974L7.61097 10.0601L7.62123 10.0642L7.73609 10.1248L7.74635 10.1351L11.5021 13.9841V10.5451L10.1063 8.69458L6.21103 8.03494C6.16077 8.11508 6.0859 8.17981 6.00078 8.22502C5.91053 8.27434 5.81104 8.30516 5.7013 8.30516C5.53106 8.30516 5.37619 8.23427 5.26543 8.12433C5.15569 8.01439 5.09107 7.85924 5.09107 7.6897C5.09107 7.52017 5.16081 7.36502 5.26543 7.26021C5.37619 7.14924 5.53618 7.07937 5.7013 7.07937C5.85104 7.07937 5.98129 7.12972 6.0859 7.215C6.18641 7.29515 6.26128 7.40509 6.29615 7.53455L9.66627 8.1048L7.94121 5.81454C7.92583 5.81968 7.90634 5.82481 7.89096 5.82481C7.86122 5.82995 7.8366 5.83509 7.81096 5.83509C7.64071 5.83509 7.48585 5.76522 7.37611 5.65528C7.26637 5.54431 7.19663 5.39019 7.19663 5.21963C7.19663 5.05009 7.26637 4.89494 7.37611 4.79014C7.48585 4.6802 7.64071 4.61033 7.81096 4.61033C7.98121 4.61033 8.13095 4.6802 8.24171 4.79014C8.35145 4.90008 8.42119 5.05523 8.42119 5.21963C8.42119 5.28025 8.41094 5.32957 8.39658 5.39019C8.38632 5.43437 8.36684 5.47958 8.34632 5.51965L11.5021 9.69946V6.43514L9.77703 4.1346C9.75652 4.13974 9.74216 4.14488 9.72678 4.14488C9.69704 4.15001 9.6714 4.15515 9.64166 4.15515C9.47141 4.15515 9.31654 4.08528 9.21193 3.97534C9.10116 3.86437 9.03142 3.71025 9.03142 3.53969C9.03142 3.37015 9.10116 3.215 9.21193 3.1102C9.32167 3.00026 9.47653 2.93039 9.64166 2.93039C9.8119 2.93039 9.96677 3.00026 10.0765 3.1102C10.1873 3.22014 10.257 3.37529 10.257 3.53969C10.257 3.59517 10.2468 3.64963 10.2314 3.71025C10.2221 3.75443 10.2016 3.79964 10.1821 3.83971L11.5072 5.5998V2.60468C11.3975 2.55536 11.3072 2.4896 11.2467 2.39507C11.1821 2.30465 11.1472 2.18443 11.1472 2.0447C11.1472 1.88955 11.217 1.73542 11.337 1.61521C11.4467 1.50527 11.5975 1.43026 11.7626 1.43026C11.9267 1.43026 12.0775 1.50013 12.1872 1.61521C12.3072 1.73029 12.3769 1.88544 12.3769 2.0447C12.3769 2.18443 12.3421 2.29951 12.2774 2.39507C12.2118 2.4896 12.1226 2.55947 12.0169 2.60468V18.1341C12.0867 18.129 12.1677 18.129 12.2426 18.1248C12.3369 18.1248 12.4272 18.1248 12.5123 18.1248C12.5923 18.1248 12.6826 18.1248 12.782 18.1248C12.8528 18.129 12.9328 18.129 13.0077 18.1341V2.60468C12.8969 2.55536 12.8077 2.4896 12.742 2.39507C12.6826 2.30465 12.6426 2.18443 12.6426 2.0447C12.6426 1.88955 12.7174 1.73542 12.8323 1.61521C12.942 1.50527 13.0928 1.43026 13.2579 1.43026C13.422 1.43026 13.5728 1.50013 13.6825 1.61521C13.7974 1.73029 13.8723 1.88544 13.8723 2.0447C13.8723 2.18443 13.8323 2.29951 13.7728 2.39507C13.7071 2.4896 13.6179 2.55947 13.5071 2.60468V5.58952L14.8332 3.82944C14.8127 3.78937 14.7932 3.74518 14.783 3.69997C14.7727 3.64449 14.7625 3.59003 14.7625 3.52941C14.7625 3.35988 14.8332 3.20473 14.943 3.09992C15.0527 2.98998 15.2076 2.92011 15.3727 2.92011C15.543 2.92011 15.6978 2.98998 15.8076 3.09992C15.9183 3.20986 15.9881 3.36501 15.9881 3.52941C15.9881 3.69997 15.9183 3.85512 15.8076 3.96507C15.6978 4.07501 15.5378 4.14488 15.3727 4.14488C15.343 4.14488 15.3224 4.13974 15.2927 4.1346C15.2732 4.1346 15.2578 4.12946 15.2425 4.12535L13.5123 6.42487V9.69946L16.668 5.50527C16.6434 5.46519 16.628 5.41999 16.6178 5.37478C16.6034 5.31929 16.5932 5.26483 16.5932 5.20524C16.5932 5.03468 16.6629 4.87953 16.7737 4.77472C16.8834 4.66478 17.0383 4.59491 17.2085 4.59491C17.3788 4.59491 17.5285 4.66478 17.6383 4.77472C17.748 4.88467 17.8188 5.03982 17.8188 5.20524C17.8188 5.37478 17.748 5.52993 17.6383 5.63987C17.5285 5.74981 17.3736 5.81968 17.2085 5.81968C17.1788 5.81968 17.1531 5.81454 17.1234 5.8094C17.108 5.8094 17.0885 5.80529 17.0731 5.80015L15.3481 8.08939L18.7182 7.52017C18.749 7.38967 18.829 7.27973 18.9285 7.19959C19.0341 7.1102 19.1684 7.06499 19.3141 7.06499C19.4833 7.06499 19.6392 7.13486 19.7489 7.2448C19.8587 7.35474 19.9284 7.50989 19.9284 7.67429C19.9284 7.84485 19.8587 8 19.7489 8.10994C19.6392 8.21988 19.4833 8.28975 19.3141 8.28975C19.2033 8.28975 19.1038 8.25995 19.0136 8.20961C18.9285 8.15926 18.8587 8.09967 18.8033 8.01952L14.9081 8.67917L13.5123 10.5297V13.9697L17.268 10.1197L17.2783 10.1094L17.3931 10.0498L17.4034 10.0447L19.4987 9.69432C19.5284 9.56486 19.6084 9.45492 19.7089 9.37478C19.8135 9.28436 19.9489 9.23915 20.0935 9.23915C20.2638 9.23915 20.4186 9.31004 20.5294 9.41999C20.6392 9.52993 20.7089 9.68508 20.7089 9.84947C20.7089 10.02 20.6392 10.1742 20.5294 10.2851C20.4186 10.3951 20.2587 10.4649 20.0935 10.4649C19.9838 10.4649 19.8843 10.4341 19.7941 10.3848C19.7089 10.3344 19.6392 10.2749 19.5838 10.1947L17.5685 10.5297L15.6229 12.5292L17.2137 13.4446L19.4587 12.4295C19.4587 12.26 19.5284 12.1099 19.6392 12C19.7489 11.8901 19.9038 11.8192 20.074 11.8192C20.2443 11.8192 20.394 11.8901 20.5038 12C20.6145 12.1099 20.6843 12.2641 20.6843 12.4346C20.6843 12.6042 20.6145 12.7542 20.5038 12.8641C20.394 12.9741 20.2392 13.045 20.074 13.045C19.9889 13.045 19.9141 13.0295 19.8443 12.9997C19.7787 12.9699 19.7192 12.935 19.6689 12.8898L17.7582 13.7549L19.5038 14.7598C19.5541 14.7249 19.6043 14.6941 19.6638 14.6745C19.7284 14.654 19.7941 14.6447 19.8638 14.6447C20.034 14.6447 20.1889 14.7146 20.2987 14.8246C20.4094 14.9345 20.4792 15.0897 20.4792 15.254C20.4792 15.4246 20.4094 15.5798 20.2987 15.6897C20.1889 15.7996 20.034 15.8695 19.8638 15.8695C19.6936 15.8695 19.5387 15.7996 19.4341 15.6897C19.3233 15.5798 19.2536 15.4246 19.2536 15.254C19.2536 15.2448 19.2536 15.2243 19.2536 15.2099V15.1945L15.263 12.8991L13.5174 14.6848V18.1444C14.1328 18.1844 14.743 18.2646 15.3327 18.3745C15.9481 18.4947 16.5532 18.6489 17.1388 18.8389C17.8588 19.0742 18.5541 19.364 19.2238 19.6989C19.8884 20.0339 20.5243 20.4192 21.1243 20.8446C22.1899 19.7442 23.0493 18.4444 23.6401 17.0049C24.2103 15.6096 24.5251 14.0848 24.5251 12.4798C24.5251 10.8544 24.2 9.30491 23.6144 7.8952C23.0042 6.43 22.1191 5.10455 21.0145 4C19.9089 2.89443 18.589 1.99949 17.1183 1.39533C15.7081 0.809658 14.1574 0.490111 12.5318 0.490111C10.9072 0.490111 9.35654 0.814796 7.94121 1.39533C6.47563 2.00462 5.15569 2.89443 4.04496 4C2.94039 5.10455 2.05017 6.42487 1.44507 7.8952C0.854324 9.30491 0.539465 10.8544 0.539465 12.4798C0.539465 14.0848 0.850222 15.6096 1.42456 17.0049C2.01017 18.4444 2.87065 19.7442 3.93522 20.8446C4.54033 20.4141 5.17107 20.0339 5.84079 19.6989C6.5064 19.364 7.20073 19.0742 7.92173 18.8389C8.51145 18.6489 9.10629 18.4947 9.72678 18.3745C10.2816 18.279 10.8867 18.1988 11.5021 18.1598ZM21.514 21.159L21.4094 21.2689L21.3396 21.3388C21.1345 21.5443 20.9243 21.7447 20.7038 21.9296C20.5038 22.1043 20.2935 22.279 20.0792 22.4393H20.0843L19.9284 22.5492C19.6689 22.7393 19.3992 22.9242 19.1284 23.0989C18.8782 23.254 18.6187 23.4041 18.3582 23.5438L18.3685 23.5541L18.0331 23.7144C17.3829 24.0339 16.708 24.299 16.0034 24.5045C15.3132 24.7038 14.5974 24.8487 13.863 24.9289C12.9974 25.0193 12.1421 25.0244 11.2816 24.9391C10.5216 24.8693 9.78216 24.7244 9.07142 24.524C8.3412 24.3144 7.64071 24.0442 6.971 23.7144L6.63563 23.5541L6.64588 23.5438C6.3864 23.4041 6.1259 23.254 5.87566 23.0989C5.6008 22.9294 5.33106 22.7444 5.07056 22.5492L4.92082 22.4393C4.71058 22.2738 4.50033 22.1043 4.29521 21.9296C4.07573 21.7395 3.86548 21.5392 3.66549 21.3388C3.60498 21.2792 3.5455 21.2237 3.49011 21.1641C2.39477 20.0247 1.51481 18.6797 0.909706 17.1898C0.319987 15.739 0 14.1598 0 12.4994C0 10.8091 0.334345 9.19497 0.944577 7.7195C1.57942 6.19471 2.50964 4.8148 3.66549 3.66504C4.81519 2.51528 6.19052 1.58541 7.72173 0.950424C9.19142 0.33496 10.8067 0 12.5021 0C14.1922 0 15.8076 0.33496 17.2783 0.945287C18.8085 1.58027 20.1838 2.51015 21.3396 3.6599C22.4893 4.80966 23.4196 6.18957 24.0544 7.71436C24.6646 9.18983 25 10.805 25 12.4942C25 14.1546 24.6749 15.7349 24.0903 17.1847C23.4893 18.6745 22.6093 20.0247 21.514 21.159ZM4.27059 21.2196C4.44084 21.3789 4.6152 21.534 4.7957 21.6892C4.98544 21.8443 5.17107 21.9995 5.36593 22.1392C5.87566 21.8043 6.40589 21.5042 6.96074 21.2443C7.51661 20.9792 8.09095 20.7542 8.68682 20.5744C9.29705 20.3843 9.92677 20.2445 10.5719 20.1439C11.2016 20.0545 11.8467 20.0041 12.5021 20.0041C13.1523 20.0041 13.8025 20.0545 14.4281 20.1439C15.0732 20.2394 15.6978 20.3843 16.3132 20.5744C16.908 20.7542 17.4885 20.9792 18.0434 21.2443C18.5941 21.5042 19.1284 21.8043 19.6341 22.1392C19.8289 21.9944 20.0238 21.8443 20.2043 21.6892C20.3838 21.5392 20.5592 21.3789 20.7345 21.2196C20.1643 20.8189 19.5643 20.4644 18.9387 20.149C18.3039 19.8346 17.6434 19.5592 16.9583 19.3393C16.2486 19.1092 15.5132 18.9294 14.7625 18.8091C14.0271 18.6941 13.2723 18.6345 12.4969 18.6345C11.7226 18.6345 10.9719 18.6941 10.2314 18.8091C9.48166 18.9294 8.74631 19.104 8.03659 19.3393C7.35149 19.5643 6.69101 19.8346 6.06129 20.149C5.43567 20.4644 4.8357 20.824 4.27059 21.2196ZM5.81104 22.4547C6.02129 22.5995 6.24077 22.7341 6.46127 22.8646C6.69101 22.9992 6.931 23.1287 7.17099 23.2489C7.56072 23.0342 7.96583 22.8441 8.38632 22.6797C8.80682 22.5091 9.23654 22.3694 9.68165 22.2543C10.137 22.1341 10.6016 22.0447 11.0765 21.9841C11.5472 21.9245 12.0221 21.8947 12.5021 21.8947C12.982 21.8947 13.4528 21.9245 13.9225 21.9841C14.3974 22.0447 14.863 22.1341 15.3183 22.2543C15.7635 22.3694 16.1932 22.5091 16.6137 22.6797C17.0331 22.8492 17.4383 23.0342 17.828 23.2489C18.069 23.1287 18.309 22.9992 18.5387 22.8646C18.7633 22.7341 18.9787 22.5944 19.189 22.4547C18.7285 22.1639 18.2485 21.9039 17.748 21.6697C17.2383 21.4292 16.708 21.2289 16.1634 21.0593C15.5778 20.8795 14.9778 20.7439 14.3574 20.6494C13.7523 20.559 13.1328 20.5137 12.5021 20.5137C11.8723 20.5137 11.2467 20.559 10.6416 20.6494C10.0222 20.7388 9.41705 20.8795 8.83656 21.0593C8.29094 21.2289 7.76173 21.4292 7.25098 21.6697C6.75152 21.8988 6.27051 22.1587 5.81104 22.4547ZM7.75148 23.514C8.40683 23.7986 9.09604 24.0236 9.80165 24.1839C10.5267 24.3493 11.2672 24.4542 12.0375 24.4788C12.0621 24.4788 12.0867 24.4788 12.1123 24.4839C12.1369 24.4839 12.1626 24.4839 12.1923 24.4839C12.2426 24.4891 12.2877 24.4891 12.3421 24.4891C12.4169 24.4891 12.4969 24.4891 12.5769 24.4891H12.7328L12.8825 24.4839C12.9123 24.4788 12.9328 24.4788 12.9625 24.4788C13.7276 24.449 14.4722 24.3493 15.1932 24.1839C15.9029 24.0195 16.588 23.7945 17.2434 23.514C16.9285 23.3589 16.6085 23.214 16.2783 23.0845C15.9234 22.954 15.5583 22.8338 15.1881 22.7341C14.7573 22.6242 14.3122 22.5338 13.863 22.4793C13.4179 22.4238 12.9625 22.3889 12.5021 22.3889C12.0375 22.3889 11.5872 22.4187 11.1421 22.4793C10.6867 22.5338 10.2416 22.6242 9.8119 22.7341C9.44166 22.8287 9.07655 22.9489 8.72169 23.0845C8.39145 23.214 8.06634 23.3589 7.75148 23.514Z" fill="#4B4947"/>
</svg>
