<svg width="54" height="54" viewBox="0 0 54 54" fill="none" xmlns="http://www.w3.org/2000/svg">
<g clip-path="url(#clip0_25_1033)">
<path d="M27 10C29.9174 10 32.7153 11.1746 34.7782 13.2654C36.8411 15.3561 38 18.1918 38 21.1487C38 24.1055 36.8411 26.9412 34.7782 29.0319C32.7153 31.1227 29.9174 32.2973 27 32.2973C24.0826 32.2973 21.2847 31.1227 19.2218 29.0319C17.1589 26.9412 16 24.1055 16 21.1487C16 18.1918 17.1589 15.3561 19.2218 13.2654C21.2847 11.1746 24.0826 10 27 10ZM27 37.8716C39.155 37.8716 49 42.8606 49 49.0203V54.5946H5V49.0203C5 42.8606 14.845 37.8716 27 37.8716Z" fill="#1B1A18"/>
</g>
<rect x="0.5" y="0.5" width="53" height="53" rx="26.5" stroke="#1B1A18"/>
<defs>
<clipPath id="clip0_25_1033">
<rect width="54" height="54" rx="27" fill="white"/>
</clipPath>
</defs>
</svg>
