<svg width="30" height="28" viewBox="0 0 30 28" fill="none" xmlns="http://www.w3.org/2000/svg">
<path fill-rule="evenodd" clip-rule="evenodd" d="M29.5161 15.1092V27.0221H2.94922V15.1103H27.1704V15.1092H29.5161Z" fill="#73F689"/>
<path fill-rule="evenodd" clip-rule="evenodd" d="M27.1704 12.6439V15.1092H2.94918V15.1103H2.94845V24.555H0.483887V12.6439H27.1704Z" fill="#73F689"/>
<path fill-rule="evenodd" clip-rule="evenodd" d="M2.94849 25.0392H0.483924C0.216406 25.0392 0 24.8225 0 24.555V12.6439C0 12.3764 0.216406 12.1596 0.483924 12.1596H27.1704C27.4376 12.1596 27.6543 12.3764 27.6543 12.6439V15.1103C27.6543 15.3778 27.4376 15.5946 27.1704 15.5946H3.43241V24.555C3.43241 24.8225 3.21565 25.0392 2.94849 25.0392ZM0.967847 24.071H2.46457V15.1103C2.46457 14.8431 2.68134 14.6264 2.94849 14.6264H26.6865V13.1278H0.967847V24.071Z" fill="#4B4947"/>
<path fill-rule="evenodd" clip-rule="evenodd" d="M29.5161 27.5063H2.94926C2.6821 27.5063 2.46533 27.2896 2.46533 27.0221V15.1092C2.46533 14.8417 2.6821 14.6249 2.94926 14.6249H29.5161C29.7836 14.6249 30 14.8417 30 15.1092V27.0221C30 27.2896 29.7836 27.5063 29.5161 27.5063ZM3.43318 26.5381H29.0326V15.5931H3.43318V26.5381Z" fill="#4B4947"/>
<path fill-rule="evenodd" clip-rule="evenodd" d="M9.64762 20.0782H5.7233C5.45615 20.0782 5.23938 19.8614 5.23938 19.5939C5.23938 19.3268 5.45615 19.11 5.7233 19.11H9.64762C9.91477 19.11 10.1315 19.3268 10.1315 19.5939C10.1315 19.8614 9.91477 20.0782 9.64762 20.0782Z" fill="#4B4947"/>
<path fill-rule="evenodd" clip-rule="evenodd" d="M9.64762 23.0213H5.7233C5.45615 23.0213 5.23938 22.8045 5.23938 22.5373C5.23938 22.2698 5.45615 22.0531 5.7233 22.0531H9.64762C9.91477 22.0531 10.1315 22.2698 10.1315 22.5373C10.1315 22.8045 9.91477 23.0213 9.64762 23.0213Z" fill="#4B4947"/>
<path fill-rule="evenodd" clip-rule="evenodd" d="M26.742 20.0782H22.8177C22.5505 20.0782 22.3337 19.8614 22.3337 19.5939C22.3337 19.3268 22.5505 19.11 22.8177 19.11H26.742C27.0095 19.11 27.2259 19.3268 27.2259 19.5939C27.2259 19.8614 27.0095 20.0782 26.742 20.0782Z" fill="#4B4947"/>
<path fill-rule="evenodd" clip-rule="evenodd" d="M26.742 23.0213H22.8177C22.5505 23.0213 22.3337 22.8045 22.3337 22.5373C22.3337 22.2698 22.5505 22.0531 22.8177 22.0531H26.742C27.0095 22.0531 27.2259 22.2698 27.2259 22.5373C27.2259 22.8045 27.0095 23.0213 26.742 23.0213Z" fill="#4B4947"/>
<path fill-rule="evenodd" clip-rule="evenodd" d="M16.2326 23.7412C15.4373 23.7412 14.7414 23.2572 14.5398 22.5649C14.4651 22.3079 14.6127 22.0393 14.8693 21.9646C15.126 21.8899 15.3946 22.0375 15.4692 22.2945C15.5497 22.5718 15.8709 22.773 16.2326 22.773C16.6568 22.773 17.0153 22.4928 17.0153 22.1614C17.0153 21.8965 16.7137 21.6862 16.1192 21.5361C15.0788 21.2947 14.4822 20.7238 14.4822 19.9702C14.4822 19.0991 15.2673 18.3905 16.2326 18.3905C17.0211 18.3905 17.7159 18.8689 17.9218 19.5544C17.9987 19.8103 17.8533 20.0804 17.5978 20.1572C17.3415 20.2344 17.0718 20.0891 16.995 19.8332C16.9123 19.558 16.5919 19.3587 16.2326 19.3587C15.8085 19.3587 15.45 19.6385 15.45 19.9702C15.45 20.3581 16.1322 20.5458 16.3414 20.594C16.3443 20.5948 16.3472 20.5955 16.3501 20.5962C16.8097 20.7115 17.1613 20.8663 17.4249 21.0693C17.7899 21.3509 17.9827 21.7283 17.9827 22.1614C17.9831 23.0325 17.1979 23.7412 16.2326 23.7412Z" fill="#4B4947"/>
<path fill-rule="evenodd" clip-rule="evenodd" d="M16.2327 24.3915C15.9655 24.3915 15.7488 24.1747 15.7488 23.9076V18.2237C15.7488 17.9566 15.9655 17.7398 16.2327 17.7398C16.5002 17.7398 16.7166 17.9566 16.7166 18.2237V23.9076C16.7166 24.1747 16.4999 24.3915 16.2327 24.3915Z" fill="#4B4947"/>
<path fill-rule="evenodd" clip-rule="evenodd" d="M14.9998 -6.67572e-06C14.7326 -6.67572e-06 14.5162 0.216763 14.5162 0.48428V9.65708C14.5162 9.9246 14.7326 10.1414 14.9998 10.1414C15.2673 10.1414 15.4837 9.9246 15.4837 9.65708V0.48428C15.4837 0.216763 15.2673 -6.67572e-06 14.9998 -6.67572e-06Z" fill="#4B4947"/>
<path fill-rule="evenodd" clip-rule="evenodd" d="M17.7943 6.42585C17.6703 6.42585 17.5463 6.47334 17.4521 6.56759L14.9998 9.02092L12.5479 6.56759C12.3591 6.37873 12.0528 6.37873 11.8636 6.56759C11.6747 6.75681 11.6747 7.06347 11.8636 7.25233L14.658 10.0478C14.8469 10.2367 15.1532 10.2367 15.3424 10.0478L18.1364 7.25233C18.3253 7.06347 18.3253 6.75681 18.1364 6.56759C18.0418 6.47334 17.9179 6.42585 17.7943 6.42585Z" fill="#4B4947"/>
</svg>
