<svg width="65" height="22" viewBox="0 0 65 22" fill="none" xmlns="http://www.w3.org/2000/svg">
<path d="M10.1218 15.9806V12.9353L8.58574 11.3647L5.06949 13.3847V13.3973C5.06949 13.4109 5.07401 13.4236 5.07401 13.4371C5.07401 13.5863 5.01264 13.7228 4.91516 13.8196C4.81859 13.9163 4.6778 13.9787 4.53249 13.9787C4.38718 13.9787 4.24639 13.9163 4.15433 13.8196C4.05686 13.7228 3.99549 13.5863 3.99549 13.4371C3.99549 13.2879 4.05686 13.1559 4.15433 13.0583C4.2509 12.9615 4.38718 12.9 4.53249 12.9C4.59386 12.9 4.65614 12.9091 4.713 12.9272C4.76173 12.9443 4.80957 12.9706 4.84928 13.0013L6.38538 12.117L4.70848 11.3557C4.66426 11.3955 4.61191 11.4262 4.55415 11.4524C4.49278 11.4796 4.42238 11.4922 4.35199 11.4922C4.20217 11.4922 4.06588 11.4307 3.96931 11.334C3.87274 11.2372 3.81047 11.1007 3.81047 10.956C3.81047 10.8059 3.87274 10.6694 3.96931 10.5727C4.06588 10.4759 4.20217 10.4144 4.35199 10.4144C4.50181 10.4144 4.63357 10.4759 4.73105 10.5727C4.82762 10.6694 4.88899 10.8059 4.88899 10.9515L6.86552 11.8439L8.26444 11.0392L6.54783 9.27967L4.77888 8.98491C4.73105 9.05453 4.66426 9.1124 4.59386 9.15128C4.51534 9.19558 4.4269 9.2218 4.33032 9.2218C4.18051 9.2218 4.04874 9.16032 3.95126 9.06357C3.85469 8.96682 3.79332 8.83029 3.79332 8.6811C3.79332 8.531 3.85469 8.39447 3.95126 8.30225C4.04874 8.2055 4.18502 8.14401 4.33032 8.14401C4.46209 8.14401 4.57671 8.18832 4.67329 8.26246C4.76173 8.33299 4.8231 8.42974 4.8583 8.54457L6.69765 8.8529L6.70668 8.85651L6.80776 8.90986L6.81679 8.9189L10.1218 12.306V9.27967L8.8935 7.65123L5.4657 7.07074C5.42148 7.14127 5.3556 7.19823 5.28069 7.23802C5.20126 7.28142 5.11372 7.30854 5.01715 7.30854C4.86733 7.30854 4.73105 7.24616 4.63357 7.14941C4.537 7.05266 4.48014 6.91613 4.48014 6.76694C4.48014 6.61775 4.54152 6.48121 4.63357 6.38899C4.73105 6.29133 4.87184 6.22985 5.01715 6.22985C5.14892 6.22985 5.26354 6.27415 5.3556 6.3492C5.44404 6.41973 5.50993 6.51648 5.54061 6.6304L8.50632 7.13223L6.98827 5.11679C6.97473 5.12132 6.95758 5.12584 6.94404 5.12584C6.91787 5.13036 6.89621 5.13488 6.87365 5.13488C6.72383 5.13488 6.58754 5.07339 6.49097 4.97665C6.3944 4.87899 6.33303 4.74337 6.33303 4.59327C6.33303 4.44408 6.3944 4.30755 6.49097 4.21532C6.58754 4.11857 6.72383 4.05709 6.87365 4.05709C7.02347 4.05709 7.15523 4.11857 7.25271 4.21532C7.34928 4.31207 7.41065 4.4486 7.41065 4.59327C7.41065 4.64662 7.40162 4.69002 7.38899 4.74337C7.37996 4.78225 7.36282 4.82203 7.34477 4.85729L10.1218 8.53553V5.66292L8.60379 3.63845C8.58574 3.64297 8.5731 3.64749 8.55957 3.64749C8.53339 3.65201 8.51083 3.65653 8.48466 3.65653C8.33484 3.65653 8.19856 3.59505 8.1065 3.4983C8.00903 3.40065 7.94765 3.26502 7.94765 3.11492C7.94765 2.96573 8.00903 2.8292 8.1065 2.73697C8.20307 2.64023 8.33935 2.57874 8.48466 2.57874C8.63448 2.57874 8.77076 2.64023 8.86733 2.73697C8.9648 2.83372 9.02617 2.97025 9.02617 3.11492C9.02617 3.16375 9.01715 3.21167 9.00361 3.26502C8.99549 3.3039 8.97744 3.34368 8.96029 3.37895L10.1264 4.92782V2.29211C10.0298 2.24871 9.95036 2.19085 9.89711 2.10766C9.84025 2.02809 9.80957 1.9223 9.80957 1.79933C9.80957 1.6628 9.87094 1.52717 9.97653 1.42138C10.0731 1.32463 10.2058 1.25863 10.3511 1.25863C10.4955 1.25863 10.6282 1.32011 10.7247 1.42138C10.8303 1.52265 10.8917 1.65918 10.8917 1.79933C10.8917 1.9223 10.861 2.02357 10.8042 2.10766C10.7464 2.19085 10.6679 2.25233 10.5749 2.29211V15.958C10.6363 15.9535 10.7076 15.9535 10.7735 15.9499C10.8565 15.9499 10.9359 15.9499 11.0108 15.9499C11.0812 15.9499 11.1607 15.9499 11.2482 15.9499C11.3105 15.9535 11.3809 15.9535 11.4468 15.958V2.29211C11.3493 2.24871 11.2708 2.19085 11.213 2.10766C11.1606 2.02809 11.1255 1.9223 11.1255 1.79933C11.1255 1.6628 11.1913 1.52717 11.2924 1.42138C11.389 1.32463 11.5217 1.25863 11.667 1.25863C11.8114 1.25863 11.944 1.32011 12.0406 1.42138C12.1417 1.52265 12.2076 1.65918 12.2076 1.79933C12.2076 1.9223 12.1724 2.02357 12.12 2.10766C12.0623 2.19085 11.9838 2.25233 11.8863 2.29211V4.91878L13.0532 3.36991C13.0352 3.33464 13.0181 3.29576 13.009 3.25598C13 3.20715 12.991 3.15923 12.991 3.10588C12.991 2.95669 13.0532 2.82016 13.1498 2.72793C13.2464 2.63118 13.3827 2.5697 13.528 2.5697C13.6778 2.5697 13.8141 2.63118 13.9106 2.72793C14.0081 2.82468 14.0695 2.96121 14.0695 3.10588C14.0695 3.25598 14.0081 3.39251 13.9106 3.48926C13.8141 3.58601 13.6733 3.64749 13.528 3.64749C13.5018 3.64749 13.4838 3.64297 13.4576 3.63845C13.4404 3.63845 13.4269 3.63393 13.4134 3.63031L11.8908 5.65388V8.53553L14.6679 4.84463C14.6462 4.80937 14.6327 4.76959 14.6236 4.7298C14.611 4.68098 14.602 4.63305 14.602 4.58061C14.602 4.43052 14.6634 4.29398 14.7608 4.20176C14.8574 4.10501 14.9937 4.04352 15.1435 4.04352C15.2933 4.04352 15.4251 4.10501 15.5217 4.20176C15.6182 4.29851 15.6805 4.43504 15.6805 4.58061C15.6805 4.7298 15.6182 4.86633 15.5217 4.96308C15.4251 5.05983 15.2888 5.12132 15.1435 5.12132C15.1173 5.12132 15.0948 5.11679 15.0686 5.11227C15.0551 5.11227 15.0379 5.10866 15.0244 5.10414L13.5063 7.11867L16.472 6.61775C16.4991 6.50291 16.5695 6.40617 16.657 6.33564C16.75 6.25697 16.8682 6.21719 16.9964 6.21719C17.1453 6.21719 17.2825 6.27868 17.3791 6.37542C17.4756 6.47217 17.537 6.6087 17.537 6.75337C17.537 6.90347 17.4756 7.04 17.3791 7.13675C17.2825 7.2335 17.1453 7.29498 16.9964 7.29498C16.8989 7.29498 16.8114 7.26876 16.7319 7.22445C16.657 7.18015 16.5957 7.12771 16.5469 7.05718L13.1191 7.63767L11.8908 9.26611V12.2933L15.1958 8.90534L15.2049 8.8963L15.306 8.84385L15.315 8.83933L17.1588 8.531C17.185 8.41708 17.2554 8.32033 17.3439 8.2498C17.4359 8.17023 17.5551 8.13045 17.6823 8.13045C17.8321 8.13045 17.9684 8.19284 18.0659 8.28959C18.1625 8.38634 18.2238 8.52287 18.2238 8.66754C18.2238 8.81763 18.1625 8.95326 18.0659 9.05091C17.9684 9.14766 17.8276 9.20915 17.6823 9.20915C17.5857 9.20915 17.4982 9.18202 17.4188 9.13862C17.3439 9.09431 17.2825 9.04187 17.2338 8.97134L15.4603 9.26611L13.7482 11.0257L15.148 11.8313L17.1236 10.938C17.1236 10.7888 17.185 10.6567 17.2825 10.56C17.3791 10.4633 17.5153 10.4009 17.6652 10.4009C17.815 10.4009 17.9468 10.4633 18.0433 10.56C18.1408 10.6567 18.2022 10.7924 18.2022 10.9425C18.2022 11.0917 18.1408 11.2237 18.0433 11.3204C17.9468 11.4172 17.8105 11.4796 17.6652 11.4796C17.5903 11.4796 17.5244 11.466 17.463 11.4398C17.4052 11.4136 17.3529 11.3828 17.3087 11.343L15.6273 12.1044L17.1634 12.9886C17.2076 12.9579 17.2518 12.9308 17.3042 12.9136C17.361 12.8955 17.4188 12.8874 17.4801 12.8874C17.63 12.8874 17.7662 12.9489 17.8628 13.0456C17.9603 13.1424 18.0217 13.2789 18.0217 13.4236C18.0217 13.5737 17.9603 13.7102 17.8628 13.8069C17.7662 13.9037 17.63 13.9652 17.4801 13.9652C17.3303 13.9652 17.194 13.9037 17.102 13.8069C17.0045 13.7102 16.9431 13.5737 16.9431 13.4236C16.9431 13.4154 16.9431 13.3973 16.9431 13.3847V13.3711L13.4314 11.3512L11.8953 12.9226V15.967C12.4368 16.0023 12.9738 16.0728 13.4928 16.1696C14.0343 16.2754 14.5668 16.411 15.0821 16.5783C15.7157 16.7853 16.3276 17.0403 16.917 17.3351C17.5018 17.6298 18.0614 17.9689 18.5893 18.3432C19.5271 17.3749 20.2834 16.2311 20.8032 14.9643C21.3051 13.7364 21.5821 12.3946 21.5821 10.9823C21.5821 9.55183 21.296 8.18832 20.7807 6.94777C20.2437 5.6584 19.4648 4.492 18.4928 3.52C17.5199 2.5471 16.3583 1.75955 15.0641 1.22789C13.8231 0.712499 12.4585 0.431297 11.028 0.431297C9.59838 0.431297 8.23376 0.71702 6.98827 1.22789C5.69856 1.76407 4.537 2.5471 3.55957 3.52C2.58755 4.492 1.80415 5.65388 1.27166 6.94777C0.751805 8.18832 0.474729 9.55183 0.474729 10.9823C0.474729 12.3946 0.748195 13.7364 1.25361 14.9643C1.76895 16.2311 2.52617 17.3749 3.463 18.3432C3.99549 17.9644 4.55054 17.6298 5.13989 17.3351C5.72563 17.0403 6.33664 16.7853 6.97112 16.5783C7.49007 16.411 8.01354 16.2754 8.55957 16.1696C9.04783 16.0855 9.58033 16.015 10.1218 15.9806ZM18.9323 18.6199L18.8403 18.7167L18.7789 18.7782C18.5984 18.959 18.4134 19.1353 18.2193 19.2981C18.0433 19.4518 17.8583 19.6055 17.6697 19.7465H17.6742L17.537 19.8433C17.3087 20.0106 17.0713 20.1733 16.833 20.327C16.6128 20.4636 16.3845 20.5956 16.1552 20.7185L16.1643 20.7276L15.8691 20.8686C15.2969 21.1498 14.7031 21.3831 14.083 21.564C13.4756 21.7394 12.8457 21.8669 12.1995 21.9374C11.4377 22.017 10.685 22.0215 9.9278 21.9464C9.25903 21.8849 8.6083 21.7575 7.98285 21.5811C7.34025 21.3967 6.72383 21.1589 6.13448 20.8686L5.83935 20.7276L5.84838 20.7185C5.62004 20.5956 5.39079 20.4636 5.17058 20.327C4.9287 20.1778 4.69134 20.0151 4.46209 19.8433L4.33032 19.7465C4.14531 19.601 3.96029 19.4518 3.77978 19.2981C3.58664 19.1308 3.40162 18.9545 3.22563 18.7782C3.17238 18.7257 3.12004 18.6769 3.0713 18.6244C2.1074 17.6217 1.33303 16.4381 0.800542 15.1271C0.281589 13.8503 0 12.4606 0 10.9994C0 9.51205 0.294224 8.09157 0.831227 6.79316C1.38989 5.45134 2.20848 4.23702 3.22563 3.22524C4.23736 2.21345 5.44765 1.39516 6.79513 0.836373C8.08845 0.294765 9.50993 0 11.0018 0C12.4892 0 13.9107 0.294765 15.2049 0.831852C16.5514 1.39064 17.7617 2.20893 18.7789 3.22071C19.7906 4.2325 20.6092 5.44682 21.1679 6.78864C21.7049 8.08705 22 9.50843 22 10.9949C22 12.4561 21.7139 13.8467 21.1995 15.1225C20.6706 16.4336 19.8962 17.6217 18.9323 18.6199ZM3.75812 18.6733C3.90794 18.8134 4.06137 18.95 4.22022 19.0865C4.38718 19.223 4.55054 19.3596 4.72202 19.4825C5.17058 19.1878 5.63718 18.9237 6.12545 18.695C6.61462 18.4617 7.12004 18.2637 7.6444 18.1054C8.18141 17.9382 8.73556 17.8152 9.30325 17.7266C9.8574 17.6479 10.4251 17.6036 11.0018 17.6036C11.574 17.6036 12.1462 17.6479 12.6968 17.7266C13.2644 17.8107 13.8141 17.9382 14.3556 18.1054C14.8791 18.2637 15.3899 18.4617 15.8782 18.695C16.3628 18.9237 16.833 19.1878 17.278 19.4825C17.4495 19.355 17.6209 19.223 17.7798 19.0865C17.9377 18.9545 18.0921 18.8134 18.2464 18.6733C17.7446 18.3206 17.2166 18.0087 16.6661 17.7311C16.1074 17.4544 15.5262 17.2121 14.9233 17.0186C14.2987 16.8161 13.6516 16.6578 12.991 16.552C12.3439 16.4508 11.6796 16.3983 10.9973 16.3983C10.3159 16.3983 9.65523 16.4508 9.00361 16.552C8.34386 16.6578 7.69675 16.8116 7.0722 17.0186C6.46931 17.2166 5.88809 17.4544 5.33393 17.7311C4.78339 18.0087 4.25541 18.3252 3.75812 18.6733ZM5.11372 19.7601C5.29874 19.8876 5.49188 20.006 5.68592 20.1209C5.88809 20.2393 6.09928 20.3533 6.31047 20.459C6.65343 20.2701 7.00993 20.1028 7.37996 19.9581C7.75 19.808 8.12816 19.6851 8.51986 19.5838C8.92058 19.478 9.32942 19.3993 9.74729 19.346C10.1616 19.2935 10.5794 19.2673 11.0018 19.2673C11.4242 19.2673 11.8384 19.2935 12.2518 19.346C12.6697 19.3993 13.0794 19.478 13.4801 19.5838C13.8718 19.6851 14.25 19.808 14.62 19.9581C14.9892 20.1073 15.3457 20.2701 15.6886 20.459C15.9007 20.3533 16.1119 20.2393 16.3141 20.1209C16.5117 20.006 16.7013 19.8831 16.8863 19.7601C16.481 19.5042 16.0587 19.2755 15.6182 19.0693C15.1697 18.8577 14.7031 18.6814 14.2238 18.5322C13.7085 18.374 13.1805 18.2546 12.6345 18.1714C12.102 18.0919 11.5569 18.0521 11.0018 18.0521C10.4477 18.0521 9.89711 18.0919 9.36462 18.1714C8.81949 18.2501 8.287 18.374 7.77617 18.5322C7.29603 18.6814 6.83033 18.8577 6.38087 19.0693C5.94134 19.2709 5.51805 19.4997 5.11372 19.7601ZM6.8213 20.6923C7.39801 20.9428 8.00451 21.1408 8.62545 21.2819C9.26354 21.4274 9.91516 21.5197 10.593 21.5414C10.6146 21.5414 10.6363 21.5414 10.6588 21.5459C10.6805 21.5459 10.7031 21.5459 10.7292 21.5459C10.7735 21.5504 10.8132 21.5504 10.861 21.5504C10.9269 21.5504 10.9973 21.5504 11.0677 21.5504H11.2049L11.3366 21.5459C11.3628 21.5414 11.3809 21.5414 11.407 21.5414C12.0803 21.5151 12.7356 21.4274 13.37 21.2819C13.9946 21.1372 14.5975 20.9392 15.1742 20.6923C14.8971 20.5558 14.6155 20.4283 14.3249 20.3144C14.0126 20.1995 13.6913 20.0938 13.3655 20.006C12.9865 19.9093 12.5948 19.8297 12.1995 19.7818C11.8078 19.733 11.407 19.7022 11.0018 19.7022C10.593 19.7022 10.1968 19.7285 9.80505 19.7818C9.40433 19.8297 9.01264 19.9093 8.63448 20.006C8.30866 20.0892 7.98736 20.195 7.67509 20.3144C7.38448 20.4283 7.09838 20.5558 6.8213 20.6923Z" fill="#4B4947"/>
<path d="M37.3536 11.3536C37.5488 11.1583 37.5488 10.8417 37.3536 10.6464L34.1716 7.46447C33.9763 7.2692 33.6597 7.2692 33.4645 7.46447C33.2692 7.65973 33.2692 7.97631 33.4645 8.17157L36.2929 11L33.4645 13.8284C33.2692 14.0237 33.2692 14.3403 33.4645 14.5355C33.6597 14.7308 33.9763 14.7308 34.1716 14.5355L37.3536 11.3536ZM27 10.5C26.7239 10.5 26.5 10.7239 26.5 11C26.5 11.2761 26.7239 11.5 27 11.5V10.5ZM37 10.5L27 10.5V11.5L37 11.5V10.5Z" fill="#4B4947"/>
<path d="M44.176 17V5.1H48.307C49.293 5.1 50.1373 5.25867 50.84 5.576C51.554 5.89333 52.098 6.34667 52.472 6.936C52.846 7.514 53.033 8.21667 53.033 9.044C53.033 9.87133 52.846 10.5797 52.472 11.169C52.098 11.7583 51.554 12.2117 50.84 12.529C50.1373 12.8463 49.293 13.005 48.307 13.005H44.499L44.754 12.733V17H44.176ZM52.54 17L49.446 12.682H50.109L53.22 17H52.54ZM44.754 12.733L44.499 12.478H48.341C49.6783 12.478 50.6983 12.1777 51.401 11.577C52.115 10.9763 52.472 10.132 52.472 9.044C52.472 7.956 52.115 7.11733 51.401 6.528C50.6983 5.92733 49.6783 5.627 48.341 5.627H44.499L44.754 5.355V12.733ZM59.1491 19.04V3.06H59.5911V19.04H59.1491ZM59.3871 17.068C58.5145 17.068 57.6871 16.915 56.9051 16.609C56.1345 16.2917 55.5451 15.895 55.1371 15.419L55.4431 15.011C55.8285 15.4417 56.3725 15.81 57.0751 16.116C57.7891 16.4107 58.5541 16.558 59.3701 16.558C60.1975 16.558 60.8775 16.4447 61.4101 16.218C61.9428 15.9913 62.3338 15.691 62.5831 15.317C62.8438 14.9317 62.9741 14.5067 62.9741 14.042C62.9741 13.498 62.8381 13.0617 62.5661 12.733C62.2941 12.4043 61.9315 12.1437 61.4781 11.951C61.0361 11.7583 60.5488 11.5997 60.0161 11.475C59.4948 11.3503 58.9621 11.22 58.4181 11.084C57.8855 10.9367 57.3925 10.7553 56.9391 10.54C56.4971 10.3133 56.1401 10.0073 55.8681 9.622C55.6075 9.22533 55.4771 8.71533 55.4771 8.092C55.4771 7.55933 55.6188 7.06067 55.9021 6.596C56.1855 6.13133 56.6275 5.75733 57.2281 5.474C57.8288 5.17933 58.5995 5.032 59.5401 5.032C60.1861 5.032 60.8208 5.134 61.4441 5.338C62.0788 5.53067 62.6171 5.79133 63.0591 6.12L62.8041 6.579C62.3281 6.22767 61.8011 5.967 61.2231 5.797C60.6451 5.627 60.0898 5.542 59.5571 5.542C58.7638 5.542 58.1008 5.661 57.5681 5.899C57.0468 6.12567 56.6615 6.43167 56.4121 6.817C56.1628 7.20233 56.0381 7.62733 56.0381 8.092C56.0381 8.64733 56.1741 9.08933 56.4461 9.418C56.7181 9.74667 57.0751 10.0073 57.5171 10.2C57.9705 10.3927 58.4635 10.5513 58.9961 10.676C59.5288 10.8007 60.0615 10.9367 60.5941 11.084C61.1268 11.22 61.6141 11.4013 62.0561 11.628C62.5095 11.8547 62.8665 12.1607 63.1271 12.546C63.3991 12.92 63.5351 13.413 63.5351 14.025C63.5351 14.5577 63.3878 15.0563 63.0931 15.521C62.8098 15.9857 62.3565 16.3597 61.7331 16.643C61.1211 16.9263 60.3391 17.068 59.3871 17.068Z" fill="#4B4947"/>
</svg>
