<svg width="39" height="39" viewBox="0 0 39 39" fill="none" xmlns="http://www.w3.org/2000/svg">
<rect width="39" height="39" rx="19.5" fill="#CBFF8C"/>
<path d="M19 21C17.6739 21 16.4021 20.4732 15.4645 19.5355C14.5268 18.5979 14 17.3261 14 16H16C16 16.7956 16.3161 17.5587 16.8787 18.1213C17.4413 18.6839 18.2044 19 19 19C19.7956 19 20.5587 18.6839 21.1213 18.1213C21.6839 17.5587 22 16.7956 22 16H24C24 17.3261 23.4732 18.5979 22.5355 19.5355C21.5979 20.4732 20.3261 21 19 21ZM19 11C19.7956 11 20.5587 11.3161 21.1213 11.8787C21.6839 12.4413 22 13.2044 22 14H16C16 13.2044 16.3161 12.4413 16.8787 11.8787C17.4413 11.3161 18.2044 11 19 11ZM26 14H24C24 13.3434 23.8707 12.6932 23.6194 12.0866C23.3681 11.48 22.9998 10.9288 22.5355 10.4645C22.0712 10.0002 21.52 9.63188 20.9134 9.3806C20.3068 9.12933 19.6566 9 19 9C17.6739 9 16.4021 9.52678 15.4645 10.4645C14.5268 11.4021 14 12.6739 14 14H12C10.89 14 10 14.89 10 16V28C10 28.5304 10.2107 29.0391 10.5858 29.4142C10.9609 29.7893 11.4696 30 12 30H26C26.5304 30 27.0391 29.7893 27.4142 29.4142C27.7893 29.0391 28 28.5304 28 28V16C28 14.89 27.1 14 26 14Z" fill="#4B4947"/>
</svg>
