<svg width="20" height="17" viewBox="0 0 20 17" fill="none" xmlns="http://www.w3.org/2000/svg">
<path d="M9.85837 5.5L12.5 8.13333C12.5 8.09167 12.5 8.04167 12.5 8C12.5 7.33696 12.2366 6.70107 11.7678 6.23223C11.299 5.76339 10.6631 5.5 10 5.5C9.95004 5.5 9.90837 5.5 9.85837 5.5ZM6.27504 6.16667L7.56671 7.45833C7.52504 7.63333 7.50004 7.80833 7.50004 8C7.50004 8.66304 7.76343 9.29893 8.23227 9.76777C8.70111 10.2366 9.337 10.5 10 10.5C10.1834 10.5 10.3667 10.475 10.5417 10.4333L11.8334 11.725C11.275 12 10.6584 12.1667 10 12.1667C8.89497 12.1667 7.83516 11.7277 7.05376 10.9463C6.27236 10.1649 5.83337 9.10507 5.83337 8C5.83337 7.34167 6.00004 6.725 6.27504 6.16667ZM1.66671 1.55833L3.56671 3.45833L3.94171 3.83333C2.56671 4.91667 1.48337 6.33333 0.833374 8C2.27504 11.6583 5.83337 14.25 10 14.25C11.2917 14.25 12.525 14 13.65 13.55L14.0084 13.9L16.4417 16.3333L17.5 15.275L2.72504 0.5M10 3.83333C11.1051 3.83333 12.1649 4.27232 12.9463 5.05372C13.7277 5.83512 14.1667 6.89493 14.1667 8C14.1667 8.53333 14.0584 9.05 13.8667 9.51667L16.3084 11.9583C17.5584 10.9167 18.5584 9.55 19.1667 8C17.725 4.34167 14.1667 1.75 10 1.75C8.83337 1.75 7.71671 1.95833 6.66671 2.33333L8.47504 4.125C8.95004 3.94167 9.45837 3.83333 10 3.83333Z" fill="#1B1A18"/>
</svg>
